<svg xmlns="http://www.w3.org/2000/svg" viewBox="0 0 42.42 42.74"><defs><style>.cls-1{fill:#3fe489;}</style></defs><title>brick_t1_top</title><g id="Слой_2" data-name="Слой 2"><g id="Слой_1-2" data-name="Слой 1"><path class="cls-1" d="M2,18.71l11.12,7a.85.85,0,0,0,.89,0L42,9a.85.85,0,0,0,0-1.44L31.19.14a.85.85,0,0,0-.92,0L2,17.28a.85.85,0,0,0,0,1.43Z"/><path class="cls-1" d="M1.34,20.84,12.1,27.43a.85.85,0,0,1,.41.73V41.89a.85.85,0,0,1-1.28.74L.42,36.07A.85.85,0,0,1,0,35.31V21.55a.85.85,0,0,1,1.34-.71Z"/><path class="cls-1" d="M14.59,28.1V41.63a.85.85,0,0,0,1.31.72L41.9,26a.85.85,0,0,0,.4-.72V12.59A.85.85,0,0,0,41,11.86L15,27.37A.85.85,0,0,0,14.59,28.1Z"/></g></g></svg>