<svg xmlns="http://www.w3.org/2000/svg" viewBox="0 0 42.25 31.07"><defs><style>.cls-1{fill:#e1e4eb;}</style></defs><title>brick</title><g id="Слой_2" data-name="Слой 2"><g id="Слой_1-2" data-name="Слой 1"><path class="cls-1" d="M1.29,9.16,12.1,15.75a.85.85,0,0,1,.41.73V30.21a.85.85,0,0,1-1.28.74L.42,24.39A.85.85,0,0,1,0,23.63V9.87a.85.85,0,0,1,1.29-.71Z"/><path class="cls-1" d="M14.54,16.37V29.85a.85.85,0,0,0,1.31.72l26-16.36a.85.85,0,0,0,.4-.72V.85A.85.85,0,0,0,41,.12L15,15.63A.85.85,0,0,0,14.54,16.37Z"/></g></g></svg>