<svg xmlns="http://www.w3.org/2000/svg" viewBox="0 0 85.89 110.82"><defs><style>.cls-1,.cls-2{fill:none;}.cls-2{stroke:#396cf3;stroke-linecap:round;stroke-miterlimit:10;stroke-width:2px;}.cls-3{fill:#396cf3;}</style></defs><title>face_1</title><g id="Слой_2" data-name="Слой 2"><g id="Слой_1-2" data-name="Слой 1"><path class="cls-1" d="M42.58,0H60.82A25.07,25.07,0,0,1,85.89,25.07V68.24a42.58,42.58,0,0,1-42.58,42.58h-.72A42.58,42.58,0,0,1,0,68.24V42.58A42.58,42.58,0,0,1,42.58,0Z"/><path class="cls-2" d="M12,38.53s10-9.12,18.47-1.36"/><path class="cls-2" d="M49,65c0,2.9-2.72,5.25-6.08,5.25S36.86,67.86,36.86,65"/><path class="cls-2" d="M74.11,38.53S64,29.41,55.64,37.17"/><path class="cls-2" d="M56.27,82.79s-7.82,10.28-16.93,2.66"/><circle class="cls-3" cx="22.99" cy="51.41" r="4"/><circle class="cls-3" cx="61.99" cy="51.41" r="4"/></g></g></svg>