<svg xmlns="http://www.w3.org/2000/svg" viewBox="0 0 85.89 110.82"><defs><style>.cls-1,.cls-2{fill:none;}.cls-2,.cls-3{stroke:#396cf3;stroke-linecap:round;stroke-miterlimit:10;stroke-width:2px;}.cls-3{fill:#396cf3;}</style></defs><title>face_2</title><g id="Слой_2" data-name="Слой 2"><g id="Слой_1-2" data-name="Слой 1"><path class="cls-1" d="M42.94,0H60.46A25.43,25.43,0,0,1,85.89,25.43V67.88a42.94,42.94,0,0,1-42.94,42.94h0A42.94,42.94,0,0,1,0,67.88V42.94A42.94,42.94,0,0,1,42.94,0Z"/><path class="cls-2" d="M12,42s12.33-11.74,18.47-1.36"/><path class="cls-2" d="M49,68.42c0,2.9-2.72,5.25-6.08,5.25s-6.08-2.35-6.08-5.25"/><path class="cls-3" d="M27.47,55.09c0,1.35-2.95,2.45-4.3,2.45s-4.3-1.1-4.3-2.45,2.95-2.45,4.3-2.45S27.47,53.74,27.47,55.09Z"/><path class="cls-3" d="M67.18,55.09c0,1.35-2.95,2.45-4.3,2.45s-4.3-1.1-4.3-2.45,2.95-2.45,4.3-2.45S67.18,53.74,67.18,55.09Z"/><path class="cls-2" d="M74.11,42S61.78,30.26,55.64,40.63"/><path class="cls-2" d="M39.95,92.83s7.82-10.28,16.93-2.66"/></g></g></svg>