<?xml version="1.0" encoding="utf-8"?>
<!-- Generator: Adobe Illustrator 21.1.0, SVG Export Plug-In . SVG Version: 6.00 Build 0)  -->
<svg version="1.1" id="Слой_1" xmlns="http://www.w3.org/2000/svg" xmlns:xlink="http://www.w3.org/1999/xlink" x="0px" y="0px"
	 viewBox="0 0 404.1 233.5" style="enable-background:new 0 0 404.1 233.5;" xml:space="preserve">
<style type="text/css">
	.st0{fill:#D9E7FF;stroke:#396CF3;stroke-width:2;stroke-miterlimit:10;}
	.st1{fill:#D9E7FF;stroke:#396CF3;stroke-width:3;stroke-miterlimit:10;}
	.st2{fill:#B4CEFC;stroke:#396CF3;stroke-width:2;stroke-miterlimit:10;}
	.st3{fill:#FFFFFF;stroke:#396CF3;stroke-width:2;stroke-miterlimit:10;}
	.st4{fill:none;stroke:#396CF3;stroke-width:2;stroke-linecap:round;stroke-miterlimit:10;}
	.st5{fill:none;stroke:#396CF3;stroke-linecap:round;stroke-miterlimit:10;}
	.st6{fill:#396CF3;stroke:#396CF3;stroke-width:2;stroke-linecap:round;stroke-miterlimit:10;}
	.st7{fill:#FFFFFF;stroke:#0068FF;stroke-width:2;stroke-miterlimit:10;}
	.st8{fill:#6095F4;stroke:#396CF3;stroke-width:2;stroke-miterlimit:10;}
	.st9{fill:none;stroke:#0068FF;stroke-width:2;stroke-miterlimit:10;}
	.st10{fill:#FFFFFF;stroke:#396CF3;stroke-width:3;stroke-miterlimit:10;}
	.st11{fill:#91F2B8;stroke:#396CF3;stroke-width:2;stroke-miterlimit:10;}
	.st12{fill:#91F2B8;stroke:#396CF3;stroke-miterlimit:10;}
	.st13{fill:none;stroke:#0068FF;stroke-width:2;stroke-linecap:round;stroke-miterlimit:10;}
	.st14{fill:none;stroke:#0068FF;stroke-width:3;stroke-linecap:round;stroke-miterlimit:10;}
	.st15{fill:none;stroke:#4D6CEE;stroke-width:2;stroke-linecap:round;stroke-miterlimit:10;}
</style>
<title>made_1</title>
<g>
	<path class="st0" d="M44.7,231.2c-15.3-19.8-14.8-51.4-14.8-73.5c0-37.6,23.1-33.8,60.7-33.8s60.7-3.8,60.7,33.8
		c0,22.2,2.3,53.7-13.1,73.5"/>
	<path class="st1" d="M91.2,129.9h-1.4c-4.5,0-8.1-3.6-8.1-8.1v-70c0-4.5,3.6-8.1,8.1-8.1h1.4c4.5,0,8.1,3.6,8.1,8.1v70
		C99.3,126.2,95.7,129.9,91.2,129.9z"/>
	<path class="st2" d="M129.9,66.9c0,0,6.2-17.8-1.4-28.1c0,0-17.1-2.7-15.8,8.2s11,18.5,11,21.2S129.9,66.9,129.9,66.9z"/>
	<path class="st3" d="M133.3,75v1.5c0,4.8-3.9,8.8-8.8,8.8H55.8c-4.8,0-8.8-3.9-8.8-8.8V75c0-4.8,3.9-8.8,8.8-8.8h68.8
		C129.4,66.2,133.3,70.1,133.3,75z"/>
	<path class="st3" d="M88,34h17c9.5,0,17.3,7.7,17.3,17.2c0,0,0,0,0,0.1v35.6c0,16.2-13.1,29.3-29.3,29.3h-5
		c-16.2,0-29.4-13.1-29.4-29.3c0,0,0,0,0,0V63.4C58.6,47.2,71.7,34,88,34C88,34,88,34,88,34z"/>
	<path class="st2" d="M58.6,66.2c0,0-7.5,0-7.5,1.4S40.8,47,57.3,37.4c0,0,33.6-54.8,76,4.1c0,0-15.1,22.6-52.1,8.2
		C81.2,49.8,59.3,38.1,58.6,66.2z"/>
	<path class="st4" d="M67.5,68.3c3.4-3.8,8.7-5.4,13.7-4.1"/>
	<path class="st4" d="M114.1,68.3c-3.4-3.8-8.7-5.4-13.7-4.1"/>
	<path class="st5" d="M95,84.8c0,2.2-2,3.9-4.5,3.9S86,86.9,86,84.8"/>
	<circle class="st6" cx="75.8" cy="74.9" r="1.8"/>
	<circle class="st6" cx="105.3" cy="74.9" r="1.8"/>
	<path class="st0" d="M126.6,143.9v75.8c0,6.8-5.5,12.3-12.3,12.3H67.2c-7.1,0-12.8-5.7-12.8-12.8v-75.2"/>
	<polygon class="st7" points="100.3,127.6 90.1,147.5 79.8,127.5 	"/>
	<polygon class="st8" points="81.2,116.2 73.1,122.6 65.3,144.9 81.2,134.3 	"/>
	<polygon class="st8" points="99.6,115.8 107.7,122.2 115.4,144.5 99.6,133.8 	"/>
	<line class="st9" x1="90.1" y1="147.5" x2="90.1" y2="231.9"/>
	<path class="st0" d="M265.5,231.7c-15.3-19.8-12.3-50.5-12.3-72.6c0-37.6,23.1-33.8,60.7-33.8s60.7-3.8,60.7,33.8
		c0,22.2,2.9,53.1-12.5,72.9"/>
	<path class="st10" d="M313.5,129.9h-1.4c-4.5,0-8.1-3.6-8.1-8.1v-70c0-4.5,3.6-8.1,8.1-8.1h1.4c4.5,0,8.1,3.6,8.1,8.1v70
		C321.6,126.2,318,129.9,313.5,129.9z"/>
	<path class="st0" d="M348.9,143.9v79.2c0,4.8-3.9,8.8-8.8,8.8h-54.6c-4.8,0-8.8-3.9-8.8-8.8v-79.2"/>
	<path class="st0" d="M229.8,230.4l-59.7-0.6c0-15.9-24.9-18.5-25.8-27.1c-1.4-12.5,0.3-25.8,0.3-37.1c0-32.5,14.4-29.3,46.9-29.3
		s49.2-3.3,49.2,29.3C240.7,184.8,243.2,213.3,229.8,230.4z"/>
	<path class="st0" d="M220.4,155.8v57.8c0,10.1-8.2,18.3-18.4,18.4h-21.2c-10.1,0-18.3-8.2-18.3-18.3v-57.9"/>
	<path class="st11" d="M180.9,133.4h3.2c2.4,0,4.3,1.9,4.3,4.3v27.6c0,2.4-1.9,4.3-4.3,4.3h-3.2c-2.4,0-4.3-1.9-4.3-4.3v-27.6
		C176.6,135.3,178.5,133.4,180.9,133.4z"/>
	<circle class="st11" cx="191.5" cy="137.1" r="14.4"/>
	<path class="st1" d="M191.4,141.4L191.4,141.4c-4.2,0-7.6-3.4-7.6-7.6V74.4c0-4.2,3.4-7.6,7.6-7.6l0,0c4.2,0,7.6,3.4,7.6,7.6v59.4
		C199.1,138,195.6,141.4,191.4,141.4z"/>
	<path class="st8" d="M171.1,108.2h42.8c5.4,0,9.7,4.4,9.7,9.7v2c0,5.4-4.4,9.7-9.7,9.7h-42.8c-5.4,0-9.7-4.4-9.7-9.7v-2
		C161.4,112.6,165.7,108.2,171.1,108.2z"/>
	<path class="st3" d="M228.4,94.6L228.4,94.6c0,4.6-3.7,8.2-8.2,8.2H162c-4.5,0-8.2-3.7-8.2-8.2v0c0-4.5,3.7-8.2,8.2-8.2h58.2
		C224.8,86.3,228.4,90,228.4,94.6z"/>
	<path class="st3" d="M191.4,58.5h11.3c9,0,16.2,7.2,16.3,16.2c0,0,0,0,0,0v27.3c0,15.2-12.3,27.6-27.6,27.6l0,0
		c-15.2,0-27.6-12.3-27.6-27.6V86C163.9,70.8,176.2,58.5,191.4,58.5z"/>
	<path class="st4" d="M171.6,88.1c3-3.3,7.5-4.7,11.9-3.6"/>
	<path class="st4" d="M211.9,88.1c-3-3.3-7.5-4.7-11.9-3.6"/>
	<path class="st4" d="M201.8,114.8c0,2.5-3.1,4.3-5.8,4.9s-6-0.2-7.2-2.3"/>
	<path class="st5" d="M195.3,102.4c-0.3,2.2-2.3,3.6-4.5,3.3c-1.7-0.2-3.1-1.6-3.3-3.3"/>
	<circle class="st6" cx="178.7" cy="93.8" r="1.6"/>
	<circle class="st6" cx="204.2" cy="93.8" r="1.6"/>
	<path class="st9" d="M191.1,229.7"/>
	<path class="st9" d="M191.1,156.7"/>
	<ellipse class="st2" cx="192.6" cy="46.4" rx="16.1" ry="15.1"/>
	<path class="st2" d="M161,90.3c0,0-15.8-49.4,22.1-42.1c0,0,46.6-21.4,49.8,40.9c0,0-43.9-5.7-49.9-18.4
		C182.9,70.7,167.5,85.2,161,90.3z"/>
	<path class="st3" d="M180.1,181.4h24.3c2.4,0,4.3,1.9,4.3,4.3v41.9c0,2.4-1.9,4.3-4.3,4.3h-24.3c-2.4,0-4.3-1.9-4.3-4.3v-41.9
		C175.8,183.4,177.7,181.4,180.1,181.4z"/>
	<path class="st12" d="M172.3,197.1h5.8c1.2,0,2.2,1,2.2,2.2v0c0,1.2-1,2.2-2.2,2.2h-5.8c-1.2,0-2.2-1-2.2-2.2v0
		C170.1,198,171.1,197.1,172.3,197.1z"/>
	<path class="st12" d="M172.3,217.4h5.8c1.2,0,2.2,1,2.2,2.2v0c0,1.2-1,2.2-2.2,2.2h-5.8c-1.2,0-2.2-1-2.2-2.2v0
		C170.1,218.4,171.1,217.4,172.3,217.4z"/>
	<path class="st0" d="M177.9,218.5h-23.4c-3.7,0-6.8-3-6.8-6.8l0,0c0-6.2,5.1-11.3,11.3-11.3l0,0h21.4c2,0,3.6,1.6,3.6,3.6l0,0v8.5
		C183.9,215.8,181.2,218.5,177.9,218.5z"/>
	<path class="st0" d="M185.7,202.8c0,0,14.9-12.3,13.2-2.1c0,0,12.8-9,12.3,6.8s-11.7,13.1-25.6,9"/>
	<path class="st12" d="M172.3,186.8h5.8c1.2,0,2.2,1,2.2,2.2v0c0,1.2-1,2.2-2.2,2.2h-5.8c-1.2,0-2.2-1-2.2-2.2v0
		C170.1,187.7,171.1,186.8,172.3,186.8z"/>
	<path class="st3" d="M355.6,75v1.5c0,4.8-3.9,8.8-8.8,8.8h-68.8c-4.8,0-8.8-3.9-8.8-8.8V75c0-4.8,3.9-8.8,8.8-8.8h68.8
		C351.7,66.2,355.6,70.1,355.6,75z"/>
	<path class="st3" d="M310.3,34h17.1c9.5,0,17.3,7.7,17.3,17.3c0,0,0,0,0,0v35.6c0,16.2-13.1,29.3-29.4,29.3l0,0h-5
		c-16.2,0-29.4-13.1-29.4-29.3l0,0V63.4C280.9,47.2,294.1,34,310.3,34C310.3,34,310.3,34,310.3,34z"/>
	<path class="st11" d="M334.4,43.7c-13.9,9-42.6,0.4-42.6,0.4L281,66l-6,0.8c0,0-11.1-31.4,4.9-43.2c0,0-2.1-9.6-9.4-11.7
		c0,0,16.6-4.5,30.8,7.6c0,0,1.8-4.4-10.4-15.4c0,0,15.4-1.3,28.6,13.4c0,0-5.4-7.3-3.9-15.5c0,0,15.9,15.4,22.5,19.1
		c0,0,29.7,6.1,11.7,44.8h-4.1C345.6,66,335.2,52.7,334.4,43.7z"/>
	<path class="st4" d="M289.9,68.3c3.4-3.8,8.7-5.4,13.7-4.1"/>
	<path class="st4" d="M336.4,68.3c-3.4-3.8-8.7-5.4-13.7-4.1"/>
	<path class="st5" d="M317.3,84.8c0,2.2-2,3.9-4.5,3.9s-4.5-1.7-4.5-3.9"/>
	<circle class="st6" cx="298.1" cy="74.9" r="1.8"/>
	<circle class="st6" cx="327.6" cy="74.9" r="1.8"/>
	<line class="st13" x1="96.1" y1="160.9" x2="96.1" y2="168.1"/>
	<line class="st13" x1="96.1" y1="176.2" x2="96.1" y2="183.3"/>
	<line class="st13" x1="96.1" y1="191.4" x2="96.1" y2="198.5"/>
	<line class="st13" x1="96.1" y1="206.7" x2="96.1" y2="213.8"/>
	<line class="st14" x1="1.5" y1="232" x2="402.6" y2="232"/>
	<path class="st15" d="M100.4,100.1c0,0-7.8,10.3-16.9,2.7"/>
	<path class="st15" d="M320.9,99.4c0,0-7.8,10.3-16.9,2.7"/>
</g>
</svg>
