<svg xmlns="http://www.w3.org/2000/svg" viewBox="0 0 221.2 182"><defs><style>.cls-1,.cls-4{fill:#87b3f4;}.cls-1,.cls-2,.cls-3,.cls-6{stroke:#336cfb;stroke-miterlimit:10;}.cls-1,.cls-2,.cls-6{stroke-width:2px;}.cls-2{fill:#e8fbf0;}.cls-3{fill:#fff;}.cls-5{fill:#336cfb;}.cls-6{fill:#d9e7ff;}</style></defs><title>ppartners_slow</title><g id="Слой_2" data-name="Слой 2"><g id="Слой_1-2" data-name="Слой 1"><circle class="cls-1" cx="205.7" cy="36" r="14.5"/><path class="cls-2" d="M193.4,85.72s0-40.18,2.62-43.67,7,0,7,0-1.75,37.56-.87,41"/><circle class="cls-3" cx="206.33" cy="38.52" r="11.98"/><circle class="cls-4" cx="209.49" cy="40.41" r="3.78"/><circle class="cls-1" cx="179.7" cy="24" r="23"/><path class="cls-2" d="M170.7,89s0-46,3-50,8,0,8,0-2,43-1,47"/><circle class="cls-3" cx="180.7" cy="28" r="19"/><circle class="cls-4" cx="185.7" cy="31" r="6"/><path class="cls-5" d="M205.7,111s3.11,22,6.05,25-23.05-1-22.05-24Z"/><path class="cls-2" d="M210.7,112s7-36-25-38-29,37-29,37,4,39-58,39-87-2-97,17,90,13,90,13,92,7,108-16c0,0,13-19,12-29,0,0-23-6-21-22C190.7,113,206.7,115,210.7,112Z"/><path class="cls-6" d="M103.7,165c51-18,50.77-66.63,14.88-99.48A70.49,70.49,0,0,0,19,69.92a56.39,56.39,0,0,0,3.53,79.67C40.9,166.41,81.7,173,103.7,165c18.73-6.81,15-45.76.3-59.22a28.87,28.87,0,0,0-40.79,1.8,23.1,23.1,0,0,0,1.44,32.63,18.48,18.48,0,0,0,26.11-1.16,14.78,14.78,0,0,0-.92-20.88,11.83,11.83,0,0,0-16.71.74,9.46,9.46,0,0,0,.59,13.37,7.57,7.57,0,0,0,10.69-.47,6.05,6.05,0,0,0-.38-8.55,4.84,4.84,0,0,0-6.84.3,3.88,3.88,0,0,0,.24,5.47,3.1,3.1,0,0,0,4.38-.19,2.48,2.48,0,0,0-.16-3.5,2,2,0,0,0-2.8.12,1.59,1.59,0,0,0,.1,2.24"/><path class="cls-4" d="M39.37,55.5H40c6.91,0,65.43,1.2,92,26.3C132,81.8,99.53,28.5,39.37,55.5Z"/></g></g></svg>