<svg xmlns="http://www.w3.org/2000/svg" viewBox="0 0 538.31 214.98"><defs><style>.cls-1,.cls-8{fill:#85b5f9;}.cls-1,.cls-2,.cls-3,.cls-4,.cls-6,.cls-7{stroke:#396cf3;stroke-miterlimit:10;}.cls-1,.cls-2,.cls-3,.cls-4,.cls-7{stroke-width:2px;}.cls-2{fill:#e8fbf0;}.cls-2,.cls-3,.cls-6{stroke-linecap:round;}.cls-3,.cls-4,.cls-6{fill:none;}.cls-5,.cls-7{fill:#396cf3;}</style></defs><title>partners_speed</title><g id="Слой_2" data-name="Слой 2"><g id="Слой_1-2" data-name="Слой 1"><path class="cls-1" d="M503.61,72c2.68,4.36,6.66,13.14,2.57,22.13,0,0-13.85-2.63-12.51-9.46S501.05,70.09,503.61,72Z"/><path class="cls-2" d="M289,135.34s-16.85.23-26.88-.18-9.82-9.62-6.75-15.15,3.49-19.83,3.49-19.83,19.89-16.07,28.89-4.32S293,132.32,289,135.34Z"/><path class="cls-2" d="M289,135.34l3.51,19.13c-10.1,7.16-18.93,14.78-18.93,14.78s-8.6,4.5-9.42,10.44-7.78,3.07-7.78,3.07-17,7.57-17,14.53c0,0-5.12,2.61-4.35,7.83,0,0-1.69,2.92-.08,4.76,0,0,2.23,6.14,7,3.38s7.37-8.44,14.28-9.52c4.51-.7,38-27.26,58.41-42.44,4.78-3.55,8.85-6.47,11.68-8.3,16-10.71,42.15-25.09,50.73-25.71,12.9-.92,47-20.57,47-20.57S460.89,93.52,464,91.06c0,0,31,.92,36.23,5.22s11.21,1.23,13.2-6l-7.22,3.84s-20.11-17.6,7.22-27.33c0,0,14.12,6.14,20.88,0s0-13.82,0-13.82-9.21-8.44-9.36-13.82S512.17,28,502,27.35s-70.16,4.91-76.14,1.23-23.18-6.14-28.55-5.22S339.23,3.13,336.85,2.84,263.17-6.57,225.91,18.6c-37,25-103.85,96.22-208.11,66.92a10.53,10.53,0,0,0-4.54-.28c-6,1-20.19,4.52-6.47,15,17.09,13.08,126,11.46,167-24.26,0,0,11.36-11.05,19.34-1.54s22.72,27,60.18,25.48c1.76-.07,3.43.09,5,.16,24.15,1,25.78,23.56,30.64,35.22"/><path class="cls-3" d="M268.69,30.42l18.11,15.2c21.49,15,23.18,43.75,22.41,73.23"/><path class="cls-3" d="M313.35,139.87c5.78-5.72,10-11.44,10.61-16.26,2.15-17.19,16.89-20.57,18.73-21.19s14.74-12.9,15.66-17.5,14.12-18.11,14.12-18.11"/><path class="cls-4" d="M523,69.36l-3.2,9s9.27-5.54,13.31-10.69"/><path class="cls-4" d="M309.22,118.85s8.31,3.59,15.13,2.41"/><path class="cls-5" d="M481.77,34.36c-3,.13-5.94.25-8.9.3l-4.45.1h-4.36a11.14,11.14,0,0,0-3.53,1.53,5.12,5.12,0,0,0-2.18,2.87,5.63,5.63,0,0,0,.46,3.61c.28.58.6,1.14.94,1.7a14,14,0,0,0,1.15,1.62,33.82,33.82,0,0,0,5.55,5.73,37.51,37.51,0,0,0,6.73,4.4,26.13,26.13,0,0,1-3.66-1.74,30.2,30.2,0,0,1-3.42-2.21,30.41,30.41,0,0,1-5.89-5.65c-.44-.53-.8-1.11-1.21-1.66a9.46,9.46,0,0,1-1-1.82,6.58,6.58,0,0,1-.57-4.24A5.92,5.92,0,0,1,460,35.54a12,12,0,0,1,3.88-1.61h4.57l4.45.1C475.84,34.11,478.8,34.23,481.77,34.36Z"/><path class="cls-5" d="M462.53,39.27a13.22,13.22,0,0,1,5.19-.33,12.15,12.15,0,0,1,5,1.76,13.37,13.37,0,0,1,1.09.79l1,.77a14.3,14.3,0,0,0,2.12,1.3,8,8,0,0,0,4.86.84,6.88,6.88,0,0,1-5.17-.12A12.22,12.22,0,0,1,474.25,43c-.36-.25-.71-.54-1.06-.79s-.65-.51-1-.71a13.86,13.86,0,0,0-4.59-1.83A20.45,20.45,0,0,0,462.53,39.27Z"/><path class="cls-5" d="M467.65,65.27l-.38,4.39c-.11,1.45-.21,2.91-.2,4.35a19.44,19.44,0,0,0,.37,4.26,4.59,4.59,0,0,0,2.3,3.38,3.35,3.35,0,0,1-1.94-1.14,6,6,0,0,1-1.11-2,14.3,14.3,0,0,1-.62-4.48A26.67,26.67,0,0,1,467.65,65.27Z"/><path class="cls-5" d="M429,44.65a36.29,36.29,0,0,1,3,6.4,48.39,48.39,0,0,1,1.83,6.87,44.16,44.16,0,0,1,.74,7.08v3.57l-.33,3.55a12,12,0,0,1-.28,1.76l-.36,1.75-.36,1.75c-.14.58-.34,1.14-.51,1.71l-1.06,3.4q-.69,1.65-1.41,3.27l-.71,1.63c-.27.53-.58,1-.86,1.55L426.92,92a12.65,12.65,0,0,1-1,1.48l-1,1.44-2.08,2.86c1.2-2,2.55-4,3.67-6l1.6-3.13c.26-.52.54-1,.79-1.57l.64-1.64c.42-1.09.85-2.18,1.3-3.26l1-3.36c.16-.56.35-1.11.48-1.68l.33-1.72L433,73.7a12,12,0,0,0,.26-1.73,47.43,47.43,0,0,0-.17-14A45.53,45.53,0,0,0,429,44.65Z"/><path class="cls-5" d="M440.32,63.84a50.62,50.62,0,0,1-.81,15A29.2,29.2,0,0,1,437,86.06a17.94,17.94,0,0,1-2.11,3.18,11.11,11.11,0,0,1-2.9,2.43,12.64,12.64,0,0,0,2.51-2.73,17.7,17.7,0,0,0,1.8-3.22,37.5,37.5,0,0,0,2.19-7.06c.53-2.42.89-4.88,1.18-7.36.15-1.24.26-2.48.35-3.73S440.25,65.09,440.32,63.84Z"/><path class="cls-5" d="M349.55,81.64a60.38,60.38,0,0,1,4.5-6.33,62.24,62.24,0,0,1,5.22-5.77,39.45,39.45,0,0,1,6-4.94,17.61,17.61,0,0,1,7.16-3l-1.81.66a14.54,14.54,0,0,0-1.71.88,26.18,26.18,0,0,0-3.2,2.1,56,56,0,0,0-5.79,5c-1.84,1.78-3.6,3.65-5.34,5.56q-1.3,1.42-2.56,2.9C351.21,79.67,350.39,80.66,349.55,81.64Z"/><path class="cls-5" d="M272.07,27.81a20,20,0,0,1,4.71,1.79,45.92,45.92,0,0,1,4.39,2.48,34.79,34.79,0,0,1,4,3,11.81,11.81,0,0,1,3.12,4,17.72,17.72,0,0,0-3.62-3.37q-2-1.46-4.09-2.8c-1.39-.9-2.81-1.77-4.22-2.64L274.27,29A16.63,16.63,0,0,0,272.07,27.81Z"/><path class="cls-5" d="M213.74,77.76c1.36,1.15,2.74,2.27,4.19,3.29s2.89,2.05,4.38,3a75.44,75.44,0,0,0,9.32,5,58,58,0,0,0,10,3.49l2.58.61,2.62.4,1.31.22,1.33.1q1.33.09,2.66.22a41,41,0,0,1-10.67-.8A47.44,47.44,0,0,1,231.23,90a58.19,58.19,0,0,1-9.34-5.3A51.89,51.89,0,0,1,213.74,77.76Z"/><path class="cls-5" d="M230,79.39a11.65,11.65,0,0,0,4,4.15A21.79,21.79,0,0,0,236.54,85l1.31.63,1.36.54c.89.39,1.84.64,2.76,1l2.83.8c1,.21,1.91.48,2.87.69s1.94.4,2.9.65c-1,0-2-.11-3-.17s-2-.26-3-.41-2-.44-2.93-.65a14.77,14.77,0,0,1-2.86-1,20.22,20.22,0,0,1-5.28-2.93A9.68,9.68,0,0,1,230,79.39Z"/><path class="cls-5" d="M167.84,66.81l7.91-5.2c2.63-1.74,5.27-3.45,7.88-5.21s5.21-3.52,7.78-5.34c1.29-.9,2.55-1.84,3.8-2.8.62-.48,1.26-1,1.87-1.44s1.21-1,1.83-1.5a60.39,60.39,0,0,1-7,6.35c-2.47,2-5.07,3.79-7.68,5.56s-5.3,3.44-8,5S170.67,65.41,167.84,66.81Z"/><path class="cls-5" d="M191.12,56.26c3.2-1.75,6.41-3.39,9.55-5.15,1.57-.89,3.1-1.81,4.59-2.81a26.25,26.25,0,0,0,2.12-1.63,10.46,10.46,0,0,0,1-.93,2.65,2.65,0,0,0,.4-.53l.39-.56a10.17,10.17,0,0,1-3.41,4.28,36,36,0,0,1-4.6,3.07A50,50,0,0,1,191.12,56.26Z"/><path class="cls-5" d="M252.11,197.29a15.72,15.72,0,0,1-3,2.88,11.29,11.29,0,0,1-3.8,1.91,5.67,5.67,0,0,1-2.23.12,3.83,3.83,0,0,1-2-1,6.1,6.1,0,0,1-1.61-3.9,12.35,12.35,0,0,0,.89,1.84,4.88,4.88,0,0,0,1.24,1.47,3.92,3.92,0,0,0,3.51.52,14.37,14.37,0,0,0,3.62-1.59Q250.42,198.5,252.11,197.29Z"/><path class="cls-5" d="M241.78,207.42a2.2,2.2,0,0,1-.87,1.88,4.48,4.48,0,0,1-1.91.92,7,7,0,0,1-2,.12,6.71,6.71,0,0,1-2-.46c.67-.16,1.31-.23,1.94-.32s1.25-.18,1.84-.32a6.87,6.87,0,0,0,1.68-.58A3,3,0,0,0,241.78,207.42Z"/><path class="cls-6" d="M504.19,43.78s32.71,6.45,11.55,23.9"/><path class="cls-7" d="M517.2,49.53c1.86,1.24-2,3.8-4.6,3.8s-4.84-1.82-4.66-4c.41-4.91,2.15-3.51,4.73-2.26A35.19,35.19,0,0,1,517.2,49.53Z"/><path class="cls-2" d="M290.28,142.18s5.5,21.6,4,27.35,5.5,9,14.5,9,36,7.25,36,7.25,10.76,2.25,13,0c0,0,9-1.37,8.74-5.62,0,0,3.38-7-2.37-9.25,0,0-24.37-5.79-41.62-3.25-4.71.69-13.55-38.43-13.3-48.81"/><path class="cls-5" d="M295.19,136.65a67.83,67.83,0,0,1,3.75,10.55,55.06,55.06,0,0,1,1.18,5.49,15.93,15.93,0,0,1,.07,5.62,13.88,13.88,0,0,0-.28-2.76c-.15-.91-.37-1.81-.56-2.71-.43-1.8-.9-3.59-1.38-5.38C297,143.87,296,140.3,295.19,136.65Z"/><path class="cls-5" d="M301.63,168.49c1.68.87,3.38,1.66,5.08,2.42s3.43,1.45,5.19,2.06a48.5,48.5,0,0,0,5.35,1.51,36.1,36.1,0,0,0,5.55.68,19.56,19.56,0,0,1-5.68.09,30,30,0,0,1-5.55-1.33A34.14,34.14,0,0,1,301.63,168.49Z"/><path class="cls-5" d="M350.94,179.7a4.93,4.93,0,0,1,2.71-.32,4.74,4.74,0,0,1,2.55,1.25,5.53,5.53,0,0,1,1.41,2.44,9.75,9.75,0,0,1,.23,1.35,13.35,13.35,0,0,1-.06,1.35c-.17-.43-.29-.84-.42-1.26a7.7,7.7,0,0,0-.49-1.18,6.89,6.89,0,0,0-1.37-2,5.28,5.28,0,0,0-2-1.21A9.72,9.72,0,0,0,350.94,179.7Z"/><path class="cls-5" d="M358.82,177.11a5.69,5.69,0,0,1,2.26-.4,6.63,6.63,0,0,1,2.3.44,5.15,5.15,0,0,1,2,1.36,4.13,4.13,0,0,1,1,2.1,9.9,9.9,0,0,0-1.53-1.53,7.43,7.43,0,0,0-1.78-1A18.84,18.84,0,0,0,358.82,177.11Z"/><path class="cls-8" d="M72,17.45l27-.35c4.5-.05,9-.17,13.5-.1s9,.16,13.5.45v.1c-4.5.29-9,.36-13.5.45s-9,0-13.5-.1l-27-.35Z"/><path class="cls-8" d="M155.17,10l27-.35c4.5-.05,9-.17,13.5-.1s9,.16,13.5.45v.1c-4.5.29-9,.36-13.5.45s-9,0-13.5-.1l-27-.35Z"/><path class="cls-8" d="M140.83,27.76q5-.22,9.92-.35c1.65-.05,3.31-.17,5-.1a40.69,40.69,0,0,1,5,.45v.1a40.68,40.68,0,0,1-5,.45c-1.65.07-3.31,0-5-.1q-5-.13-9.92-.35Z"/><path class="cls-8" d="M100.83,42.12q9.21-.22,18.42-.35c3.07-.05,6.14-.17,9.21-.1s6.14.16,9.21.45v.1c-3.07.29-6.14.36-9.21.45s-6.14,0-9.21-.1q-9.21-.13-18.42-.35Z"/><path class="cls-8" d="M147.83,36.52q9.21-.22,18.42-.35c3.07-.05,6.14-.17,9.21-.1s6.14.16,9.21.45v.1c-3.07.29-6.14.36-9.21.45s-6.14,0-9.21-.1q-9.21-.13-18.42-.35Z"/></g></g></svg>