<svg xmlns="http://www.w3.org/2000/svg" xmlns:xlink="http://www.w3.org/1999/xlink" viewBox="0 0 233.29 229"><defs><style>.cls-1,.cls-2,.cls-5{fill:none;}.cls-1{clip-rule:evenodd;}.cls-3{fill-rule:evenodd;fill:url(#Безымянный_градиент_22);}.cls-4{clip-path:url(#clip-path);}.cls-5{stroke:#fff;stroke-linecap:round;}.cls-5,.cls-7,.cls-8{stroke-miterlimit:10;stroke-width:2px;}.cls-6{fill:#fff;}.cls-7{fill:#6095f4;}.cls-7,.cls-8{stroke:#316afb;}.cls-8{fill:#b4cefc;}</style><linearGradient id="Безымянный_градиент_22" x1="0.93" y1="100.97" x2="230.66" y2="100.97" gradientUnits="userSpaceOnUse"><stop offset="0" stop-color="#d5e7ff"/><stop offset="1" stop-color="#316afb"/></linearGradient><clipPath id="clip-path"><path class="cls-1" d="M37.61,200.46l78.46-73.21,77.09,72.46c20-20.67,37.49-52.33,37.49-83.38A114.86,114.86,0,1,0,37.61,200.46Z"/></clipPath></defs><title>speedo_bg</title><g id="Слой_2" data-name="Слой 2"><g id="Слой_2-2" data-name="Слой 2"><rect class="cls-2" x="1.66" width="229" height="229"/><path class="cls-3" d="M37.61,200.46l78.46-73.21,77.09,72.46c20-20.67,37.49-52.33,37.49-83.38A114.86,114.86,0,1,0,37.61,200.46Z"/><g class="cls-4"><line class="cls-5" x1="115.49" y1="1.47" x2="115.49" y2="16.54"/><line class="cls-5" x1="49.09" y1="20.84" x2="57.84" y2="33.11"/><line class="cls-5" x1="184.32" y1="22.08" x2="175.34" y2="34.19"/><line class="cls-5" x1="219.36" y1="61.72" x2="207.54" y2="71.07"/><line class="cls-5" x1="232.29" y1="132.2" x2="217.79" y2="128.11"/><line class="cls-5" x1="1" y1="132.2" x2="15.5" y2="128.11"/><line class="cls-5" x1="15.09" y1="61.72" x2="26.91" y2="71.07"/></g><circle class="cls-6" cx="115.78" cy="116.24" r="87.82"/><circle class="cls-7" cx="116.21" cy="116.37" r="45.34"/><circle class="cls-8" cx="116.21" cy="116.37" r="27.69"/></g></g></svg>