<svg xmlns="http://www.w3.org/2000/svg" viewBox="0 0 144.67 147.67"><defs><style>.cls-1,.cls-5{fill:none;}.cls-1,.cls-3,.cls-4,.cls-5,.cls-7{stroke:#fff;stroke-miterlimit:10;}.cls-1,.cls-3,.cls-7{stroke-width:2px;}.cls-2{fill:#7fefac;}.cls-3,.cls-4{fill:#41e583;}.cls-5{stroke-width:0.75px;stroke-dasharray:2.97 2.97;}.cls-6{fill:#fff;}.cls-7{fill:#41da84;}</style></defs><title>sps_main_2</title><g id="Слой_2" data-name="Слой 2"><g id="Слой_20" data-name="Слой 20"><rect class="cls-1" x="44.33" y="1" width="99.33" height="145.67" rx="5.39" ry="5.39"/><rect class="cls-2" x="48.52" y="10.75" width="81.52" height="2.08" rx="1.04" ry="1.04"/><rect class="cls-2" x="48.52" y="22.06" width="86.81" height="2.22" rx="1.11" ry="1.11"/><rect class="cls-2" x="48.52" y="33.64" width="86.81" height="2.22" rx="1.11" ry="1.11"/><rect class="cls-2" x="48.52" y="44.73" width="86.81" height="2.22" rx="1.11" ry="1.11"/><rect class="cls-2" x="48.52" y="56.3" width="86.81" height="2.22" rx="1.11" ry="1.11"/><rect class="cls-2" x="48.52" y="68.67" width="73.9" height="1.89" rx="0.94" ry="0.94"/><rect class="cls-2" x="48.52" y="84.88" width="83.52" height="2.13" rx="1.07" ry="1.07"/><rect class="cls-2" x="48.52" y="101.14" width="83.52" height="2.13" rx="1.07" ry="1.07"/><rect class="cls-2" x="48.52" y="113.46" width="67.31" height="1.72" rx="0.86" ry="0.86"/><rect class="cls-2" x="48.52" y="126.96" width="67.31" height="1.72" rx="0.86" ry="0.86"/><circle class="cls-3" cx="41.25" cy="65.5" r="26.75"/><circle class="cls-4" cx="41.25" cy="65.5" r="17.97"/><circle class="cls-5" cx="41.25" cy="65.5" r="22.66"/><path class="cls-6" d="M34.74,66.45a.91.91,0,0,0-.33-.73,3.66,3.66,0,0,0-.83-.51l-1.08-.48a5.47,5.47,0,0,1-1.08-.6,3.08,3.08,0,0,1-.83-.89,2.55,2.55,0,0,1-.33-1.36,3,3,0,0,1,.24-1.24,2.33,2.33,0,0,1,.68-.87,2.94,2.94,0,0,1,1-.52,5,5,0,0,1,1.34-.17,8.45,8.45,0,0,1,1.61.15,4.1,4.1,0,0,1,1.25.43l-.6,1.61a3.38,3.38,0,0,0-.92-.36,5.25,5.25,0,0,0-1.33-.16,1.7,1.7,0,0,0-1,.27.84.84,0,0,0-.36.71.88.88,0,0,0,.33.7,3.83,3.83,0,0,0,.83.52l1.08.49a5.78,5.78,0,0,1,1.08.61,3.12,3.12,0,0,1,.83.88,2.43,2.43,0,0,1,.33,1.31,3.23,3.23,0,0,1-.26,1.35,2.56,2.56,0,0,1-.73.95,3.08,3.08,0,0,1-1.13.56,5.55,5.55,0,0,1-1.46.18,7.82,7.82,0,0,1-1.85-.2A5.63,5.63,0,0,1,30,68.69l.62-1.64.4.18a5.16,5.16,0,0,0,.55.18,6.27,6.27,0,0,0,.65.14,4.41,4.41,0,0,0,.71.06,2.47,2.47,0,0,0,1.31-.29A1,1,0,0,0,34.74,66.45Z"/><path class="cls-6" d="M37.93,59.38q.59-.11,1.29-.17t1.41-.06a9.11,9.11,0,0,1,1.46.12,3.65,3.65,0,0,1,1.32.48,2.77,2.77,0,0,1,1,1,3.28,3.28,0,0,1,.37,1.66A3.43,3.43,0,0,1,44.42,64a3,3,0,0,1-.85,1,3.45,3.45,0,0,1-1.21.59,5.4,5.4,0,0,1-1.41.18h-.55l-.33,0-.23,0v3.37H37.93Zm2.86,1.41-.53,0-.41,0V64l.17,0,.24,0h.42a4,4,0,0,0,.75-.07,1.85,1.85,0,0,0,.67-.26,1.34,1.34,0,0,0,.47-.52,1.91,1.91,0,0,0,.17-.88,1.55,1.55,0,0,0-.17-.76,1.37,1.37,0,0,0-.44-.48,1.71,1.71,0,0,0-.62-.25A3.62,3.62,0,0,0,40.78,60.8Z"/><path class="cls-6" d="M50.16,66.45a.91.91,0,0,0-.33-.73,3.66,3.66,0,0,0-.83-.51l-1.08-.48a5.47,5.47,0,0,1-1.08-.6,3.08,3.08,0,0,1-.83-.89,2.55,2.55,0,0,1-.33-1.36,3,3,0,0,1,.24-1.24,2.33,2.33,0,0,1,.68-.87,2.94,2.94,0,0,1,1-.52A5,5,0,0,1,49,59.09a8.45,8.45,0,0,1,1.61.15,4.1,4.1,0,0,1,1.25.43l-.6,1.61a3.38,3.38,0,0,0-.92-.36A5.25,5.25,0,0,0,49,60.75,1.7,1.7,0,0,0,48,61a.84.84,0,0,0-.36.71.88.88,0,0,0,.33.7,3.83,3.83,0,0,0,.83.52l1.08.49a5.78,5.78,0,0,1,1.08.61,3.12,3.12,0,0,1,.83.88,2.43,2.43,0,0,1,.33,1.31,3.23,3.23,0,0,1-.26,1.35,2.56,2.56,0,0,1-.73.95A3.08,3.08,0,0,1,50,69.1a5.55,5.55,0,0,1-1.46.18,7.82,7.82,0,0,1-1.85-.2,5.63,5.63,0,0,1-1.18-.39l.62-1.64.4.18a5.16,5.16,0,0,0,.55.18,6.27,6.27,0,0,0,.65.14,4.41,4.41,0,0,0,.71.06,2.47,2.47,0,0,0,1.31-.29A1,1,0,0,0,50.16,66.45Z"/><path class="cls-7" d="M96.83,134.65h-92A3.85,3.85,0,0,1,1,130.8V69a3.85,3.85,0,0,1,3.82-3.84l90.29-.52a9.55,9.55,0,0,1,6.61,2.45,7.81,7.81,0,0,1,2.61,5.71v54.33A7.5,7.5,0,0,1,96.83,134.65Z"/><path class="cls-7" d="M96.83,140H5.71A4.71,4.71,0,0,1,1,135.29V70.55L95.11,70a9.55,9.55,0,0,1,6.61,2.45,7.81,7.81,0,0,1,2.61,5.71V132.5A7.5,7.5,0,0,1,96.83,140Z"/><path class="cls-1" d="M103.66,117H70.42a11.25,11.25,0,0,1-11.25-11.25V97.92A11.25,11.25,0,0,1,70.42,86.67h33.17"/><circle class="cls-1" cx="76.33" cy="101.5" r="8.33"/></g></g></svg>