<svg xmlns="http://www.w3.org/2000/svg" viewBox="0 0 121 121.17"><defs><style>.cls-1{fill:none;}.cls-1,.cls-2,.cls-3{stroke:#fff;stroke-miterlimit:10;stroke-width:3px;}.cls-1,.cls-3{stroke-linecap:round;}.cls-2{fill:#2bd774;}.cls-3{fill:#41e583;}</style></defs><title>wheel_2</title><g id="Слой_2" data-name="Слой 2"><g id="Слой_18" data-name="Слой 18"><path class="cls-1" d="M77.1,72.46A20.39,20.39,0,1,1,79.5,68"/><path class="cls-2" d="M54.86,11.5A49,49,0,0,1,74.21,13l3.59-7.4a2.85,2.85,0,0,1,3.83-1.23l12,6.14a2.85,2.85,0,0,1,1.23,3.83l-3.94,7a49.65,49.65,0,0,1,13.29,15.26L111.68,34a2.85,2.85,0,0,1,3.58,1.84l4.11,12.8a2.85,2.85,0,0,1-1.84,3.58l-7.41,2.2a49.62,49.62,0,0,1-1.43,20.21L115.33,78a2.85,2.85,0,0,1,1.23,3.83l-6.14,12A2.85,2.85,0,0,1,106.59,95l-6.34-3.51a49.65,49.65,0,0,1-15.37,13.26L87,111.85a2.85,2.85,0,0,1-1.84,3.58l-12.8,4.11a2.85,2.85,0,0,1-3.58-1.84l-2.35-7a49.65,49.65,0,0,1-20.32-1.83l-3.23,6.59a2.85,2.85,0,0,1-3.83,1.23l-12-6.14a2.85,2.85,0,0,1-1.23-3.83l3.33-6.83A50.73,50.73,0,0,1,16.68,85.25L9.32,87.61a2.85,2.85,0,0,1-3.58-1.84L1.64,73A2.85,2.85,0,0,1,3.47,69.4l7.58-2.56A50,50,0,0,1,12.65,46.7l-7.1-3.65a2.85,2.85,0,0,1-1.23-3.83l6.14-12A2.85,2.85,0,0,1,14.28,26l7.39,3.86a50.48,50.48,0,0,1,15-12.58l-2.57-8a2.85,2.85,0,0,1,1.84-3.58L48.7,1.64a2.85,2.85,0,0,1,3.58,1.84Z"/><path class="cls-3" d="M89.94,58.79A29.47,29.47,0,1,1,86.53,46.7"/></g></g></svg>