<svg xmlns="http://www.w3.org/2000/svg" viewBox="0 0 168.33 168.26"><defs><style>.cls-1{fill:none;}.cls-1,.cls-2,.cls-3{stroke:#fff;stroke-miterlimit:10;stroke-width:3px;}.cls-1,.cls-3{stroke-linecap:round;}.cls-2{fill:#2bd774;}.cls-3{fill:#41e583;}</style></defs><title>wheel_1</title><g id="Слой_2" data-name="Слой 2"><g id="Слой_18" data-name="Слой 18"><path class="cls-1" d="M89.7,114.23a30.59,30.59,0,1,1,7.2-2.27"/><path class="cls-2" d="M97.58,17.09a67.76,67.76,0,0,1,24.84,10.22l7.86-8.23a3.94,3.94,0,0,1,5.56,0L149,32.23a3.94,3.94,0,0,1,0,5.56l-8.14,7.52a68.68,68.68,0,0,1,11,25.72l11-.26a3.94,3.94,0,0,1,3.93,3.93V93.29a3.94,3.94,0,0,1-3.93,3.93L152.21,97a68.64,68.64,0,0,1-10.43,26l7.34,7.19a3.94,3.94,0,0,1,0,5.56L136,148.9a3.94,3.94,0,0,1-5.56,0l-6.86-7.3a68.67,68.67,0,0,1-25.85,11l-.22,10.27a3.94,3.94,0,0,1-3.93,3.93H74.94A3.94,3.94,0,0,1,71,162.83l-.12-10.25a68.67,68.67,0,0,1-26-11l-7,7.32a3.94,3.94,0,0,1-5.56,0L19.17,135.75a3.94,3.94,0,0,1,0-5.56l7.27-7.59A70.16,70.16,0,0,1,16.12,98.07H5.43A3.94,3.94,0,0,1,1.5,94.13V75.54a3.94,3.94,0,0,1,3.93-3.93l11.07-.16A69.22,69.22,0,0,1,27.11,45.6L19.3,37.79a3.94,3.94,0,0,1,0-5.56L32.45,19.08a3.94,3.94,0,0,1,5.56,0l8.09,8.2A69.83,69.83,0,0,1,71.13,17V5.43A3.94,3.94,0,0,1,75.06,1.5H93.65a3.94,3.94,0,0,1,3.93,3.93Z"/><path class="cls-3" d="M111.84,110.57q-.53.55-1.09,1.09A38.24,38.24,0,1,1,119.8,98.1"/></g></g></svg>