<?xml version="1.0" encoding="utf-8"?>
<!-- Generator: Adobe Illustrator 21.1.0, SVG Export Plug-In . SVG Version: 6.00 Build 0)  -->
<svg version="1.1" id="Слой_1" xmlns="http://www.w3.org/2000/svg" xmlns:xlink="http://www.w3.org/1999/xlink" x="0px" y="0px"
	 viewBox="0 0 377.3 305.6" style="enable-background:new 0 0 377.3 305.6;" xml:space="preserve">
<style type="text/css">
	.st0{fill:#B4CEFC;stroke:#396CF3;stroke-width:3;stroke-miterlimit:10;}
	.st1{fill:#C4F7D8;stroke:#396CF3;stroke-width:2;stroke-miterlimit:10;}
	.st2{opacity:0.68;fill:#FFFFFF;enable-background:new    ;}
	.st3{fill:none;}
	.st4{opacity:0.1;enable-background:new    ;}
	.st5{fill:url(#SVGID_1_);}
	.st6{fill:none;stroke:#396CF3;stroke-miterlimit:10;}
	.st7{opacity:0.63;fill:#FFFFFF;enable-background:new    ;}
	.st8{fill:#6095F4;}
	.st9{fill:#FFFFFF;stroke:#396CF3;stroke-width:2;stroke-miterlimit:10;}
	.st10{fill:#396CF3;}
	.st11{font-family:'SegoeUI-Bold';}
	.st12{font-size:12px;}
	.st13{fill:none;stroke:#B4CEFC;stroke-width:2;stroke-linecap:round;stroke-miterlimit:10;}
</style>
<title>door_1</title>
<g id="Слой_2">
	<g id="Слой_7">
		<path class="st0" d="M109.2,57.1h129.9c3,0,5.4,2.4,5.4,5.4v236.3c0,3-2.4,5.4-5.4,5.4H109.2c-3,0-5.4-2.4-5.4-5.4V62.5
			C103.8,59.5,106.2,57.1,109.2,57.1z"/>
		<rect x="122" y="76" class="st1" width="103.8" height="211"/>
		<polygon class="st2" points="224.8,223.4 123.1,77 224.8,77 		"/>
		<rect x="122" y="82.6" class="st3" width="96.3" height="204.4"/>
		<path class="st4" d="M118.6,170.6h114.5c2.3,0,4.1,1.8,4.1,4.1v0c0,2.3-1.8,4.1-4.1,4.1H118.6c-2.3,0-4.1-1.8-4.1-4.1v0
			C114.5,172.4,116.3,170.6,118.6,170.6z"/>
		
			<linearGradient id="SVGID_1_" gradientUnits="userSpaceOnUse" x1="174.665" y1="142.59" x2="174.665" y2="134.42" gradientTransform="matrix(1 0 0 -1 0 308)">
			<stop  offset="0.51" style="stop-color:#3C7EEF"/>
			<stop  offset="0.54" style="stop-color:#396CF3"/>
		</linearGradient>
		<path class="st5" d="M117.4,165.4h114.5c2.3,0,4.1,1.8,4.1,4.1v0c0,2.3-1.8,4.1-4.1,4.1H117.4c-2.3,0-4.1-1.8-4.1-4.1v0
			C113.3,167.2,115.2,165.4,117.4,165.4z"/>
		<polyline class="st6" points="147.5,131.2 174.4,114.6 196.8,128.8 		"/>
		<circle class="st7" cx="174.4" cy="114.4" r="5.4"/>
		<circle class="st8" cx="174.4" cy="114.6" r="1.8"/>
		
			<rect x="146.7" y="128.4" transform="matrix(0.998 -6.331308e-02 6.331308e-02 0.998 -8.5343 11.2935)" class="st9" width="54.5" height="23.8"/>
		<text transform="matrix(0.9983 -5.756403e-02 5.756403e-02 0.9983 152.15 146.04)" class="st10 st11 st12">C</text>
		<text transform="matrix(0.9983 -5.756403e-02 5.756403e-02 0.9983 159.6276 145.6088)" class="st10 st11 st12">L</text>
		<text transform="matrix(0.9983 -5.756403e-02 5.756403e-02 0.9983 165.4479 145.2732)" class="st10 st11 st12">OSED</text>
		<path class="st13" d="M225.5,1h43.4c1.5,0,2.6,1.2,2.6,2.6c0,0,0,0,0,0v13.6c0,1.4-1.2,2.6-2.6,2.6h-43.4c-1.5,0-2.6-1.2-2.6-2.6
			c0,0,0,0,0,0V3.6C222.8,2.2,224,1,225.5,1C225.5,1,225.5,1,225.5,1z"/>
		<path class="st13" d="M247.8,19.9h43.4c1.5,0,2.6,1.2,2.6,2.6c0,0,0,0,0,0v13.6c0,1.4-1.2,2.6-2.6,2.6h-43.4
			c-1.5,0-2.6-1.2-2.6-2.6v0V22.5C245.2,21.1,246.3,19.9,247.8,19.9L247.8,19.9z"/>
		<line class="st13" x1="253.4" y1="1" x2="283.6" y2="1"/>
		<line class="st13" x1="209.3" y1="19.9" x2="239.4" y2="19.9"/>
		<path class="st13" d="M278,204h43.4c1.4,0,2.6,1.2,2.6,2.6v13.6c0,1.4-1.2,2.6-2.6,2.6H278c-1.5,0-2.6-1.2-2.6-2.6c0,0,0,0,0,0
			v-13.6C275.4,205.2,276.6,204,278,204z"/>
		<path class="st13" d="M300.4,222.9h43.4c1.5,0,2.6,1.2,2.6,2.6c0,0,0,0,0,0v13.6c0,1.4-1.2,2.6-2.6,2.6h-43.4
			c-1.5,0-2.6-1.2-2.6-2.6c0,0,0,0,0,0v-13.6C297.7,224,298.9,222.8,300.4,222.9C300.4,222.8,300.4,222.8,300.4,222.9z"/>
		<line class="st13" x1="306" y1="204" x2="336.1" y2="204"/>
		<line class="st13" x1="261.9" y1="222.9" x2="292" y2="222.9"/>
		<path class="st13" d="M24.5,28.8h43.4c1.5,0,2.6,1.2,2.6,2.6V45c0,1.4-1.2,2.6-2.6,2.6l0,0H24.5c-1.4,0-2.6-1.2-2.6-2.6V31.4
			C21.9,29.9,23.1,28.8,24.5,28.8z"/>
		<path class="st13" d="M13.6,47.6H57c1.5,0,2.6,1.2,2.6,2.6l0,0v13.6c0,1.4-1.2,2.6-2.6,2.6c0,0,0,0,0,0H13.6
			c-1.5,0-2.6-1.2-2.6-2.6V50.3C11,48.8,12.2,47.7,13.6,47.6L13.6,47.6z"/>
		<path class="st13" d="M24.5,66.5h43.4c1.5,0,2.6,1.2,2.6,2.6v13.6c0,1.4-1.2,2.6-2.6,2.6c0,0,0,0,0,0H24.5c-1.5,0-2.6-1.2-2.6-2.6
			V69.1C21.9,67.7,23,66.5,24.5,66.5L24.5,66.5L24.5,66.5z"/>
		<line class="st13" x1="1" y1="28.8" x2="31.1" y2="28.8"/>
		<line class="st13" x1="67" y1="66.5" x2="89.6" y2="66.5"/>
		<path class="st13" d="M26.7,195.1h43.4c1.5,0,2.6,1.2,2.6,2.6l0,0v13.6c0,1.4-1.1,2.6-2.6,2.6c0,0,0,0,0,0H26.7
			c-1.5,0-2.6-1.2-2.6-2.6l0,0v-13.6C24.1,196.3,25.2,195.1,26.7,195.1C26.7,195.1,26.7,195.1,26.7,195.1z"/>
		<path class="st13" d="M43.2,214h43.4c1.5,0,2.6,1.2,2.6,2.6l0,0v13.6c0,1.4-1.2,2.6-2.6,2.6H43.2c-1.5,0-2.6-1.2-2.6-2.6l0,0
			v-13.6C40.6,215.2,41.7,214,43.2,214z"/>
		<path class="st13" d="M26.7,232.9h43.4c1.5,0,2.6,1.2,2.6,2.6l0,0v13.6c0,1.4-1.2,2.6-2.6,2.6H26.7c-1.5,0-2.6-1.2-2.6-2.6l0,0
			v-13.6C24.1,234,25.2,232.9,26.7,232.9L26.7,232.9z"/>
		<line class="st13" x1="3.2" y1="195.1" x2="33.3" y2="195.1"/>
		<line class="st13" x1="9.8" y1="232.9" x2="39.9" y2="232.9"/>
		<path class="st13" d="M290.9,80.6h43.4c1.5,0,2.6,1.2,2.6,2.6l0,0v13.6c0,1.4-1.2,2.6-2.6,2.6h-43.4c-1.5,0-2.6-1.2-2.6-2.6l0,0
			V83.2C288.3,81.7,289.4,80.6,290.9,80.6C290.9,80.6,290.9,80.6,290.9,80.6z"/>
		<path class="st13" d="M315.2,99.4h43.4c1.5,0,2.6,1.2,2.6,2.6l0,0v13.6c0,1.4-1.2,2.6-2.6,2.6h-43.4c-1.5,0-2.6-1.2-2.6-2.6l0,0
			v-13.6C312.6,100.6,313.7,99.4,315.2,99.4C315.2,99.4,315.2,99.4,315.2,99.4z"/>
		<path class="st13" d="M290.9,118.3h43.4c1.5,0,2.6,1.2,2.6,2.6l0,0v13.6c0,1.4-1.2,2.6-2.6,2.6h-43.4c-1.5,0-2.6-1.2-2.6-2.6
			c0,0,0,0,0,0v-13.6C288.3,119.5,289.4,118.3,290.9,118.3C290.9,118.3,290.9,118.3,290.9,118.3z"/>
		<line class="st13" x1="267.4" y1="80.6" x2="297.5" y2="80.6"/>
		<line class="st13" x1="346.1" y1="99.4" x2="376.3" y2="99.4"/>
		<line class="st13" x1="346.1" y1="118.3" x2="376.3" y2="118.3"/>
		<line class="st13" x1="313.5" y1="137.2" x2="313.5" y2="159"/>
		<line class="st13" x1="333.4" y1="118.3" x2="356" y2="118.3"/>
	</g>
</g>
</svg>
