<?xml version="1.0" encoding="utf-8"?>
<!-- Generator: Adobe Illustrator 21.1.0, SVG Export Plug-In . SVG Version: 6.00 Build 0)  -->
<svg version="1.1" id="Слой_1" xmlns="http://www.w3.org/2000/svg" xmlns:xlink="http://www.w3.org/1999/xlink" x="0px" y="0px"
	 viewBox="0 0 523.5 372" style="enable-background:new 0 0 523.5 372;" xml:space="preserve">
<style type="text/css">
	.st0{fill:#396CF3;}
	.st1{fill:#6095F4;}
	.st2{fill:#FFFFFF;}
	.st3{fill:#D9E7FF;}
	.st4{fill:none;stroke:#396CF3;stroke-miterlimit:10;}
	.st5{fill:#91F2B8;}
	.st6{fill:#D9E7FF;stroke:#396CF3;stroke-width:2;stroke-miterlimit:10;}
</style>
<title>big boss</title>
<g id="Слой_2">
	<g id="Слой_5">
		<g>
			<path class="st0" d="M190.9,263.1c-4.6,0-8.4-1.2-11.2-3.5c-6.6-5.4-6.3-15.5-6.2-19.8c0-0.7,0-1.4,0-1.7
				c-0.4-3.4,12.6-51.6,15.3-61.8c-0.1-7.3,4.6-14,11.5-16.2c11.2-4.1,57.4-16.8,59.3-17.3l0.8,2.9c-0.5,0.1-48,13.2-59.1,17.3
				c-5.8,1.9-9.7,7.5-9.5,13.5l0,0.2l-0.1,0.2c-5.9,22.1-15.4,58.2-15.3,61c0,0.4,0,1.1,0,2c-0.1,4.2-0.3,12.9,5.1,17.4
				c3.6,2.9,9.2,3.6,16.6,1.9c1.2-0.4,18.3-6.4,24.8-16.8c-6.7-8.6-10.3-19.1-10.1-30c-6.8,4.2-13.7,8.6-14.6,9.6
				c-0.7,0.8-2,1.3-4,2.1c-3.8,1.5-9.4,3.8-11,8.5l-0.3,0.8l-0.8,0.2c-0.5,0.1-1,0.3-1.2,0.4c0,0,0.2-0.1,0.3-0.4l-2.8-1
				c0.3-0.7,1-1.3,2.3-1.7c2.3-5.5,8.3-8,12.4-9.6c1.2-0.5,2.6-1,2.9-1.4c1.7-1.9,15-10,17.7-11.6l2.5-1.5l-0.2,2.9
				c-0.8,11.4,2.7,22.6,10,31.5l0.6,0.8l-0.5,0.9c-6.8,12.4-26.2,18.9-27,19.1l-0.1,0C196.1,262.8,193.4,263.1,190.9,263.1z"/>
		</g>
		<g>
			<path class="st0" d="M335,263.8c-2.4,0-5.1-0.3-8.1-1l-0.1,0c-0.8-0.3-20.2-6.7-27-19.1l-0.5-0.9l0.6-0.8
				c7.3-8.9,10.8-20.1,10-31.5l-0.2-2.9l2.5,1.5c2.6,1.6,15.9,9.7,17.7,11.6c0.3,0.3,1.8,0.9,2.9,1.4c4.1,1.6,10.2,4.1,12.4,9.6
				c1.2,0.4,2,1,2.3,1.7l-2.8,1c0.1,0.3,0.2,0.4,0.3,0.4c-0.2-0.1-0.8-0.3-1.2-0.4l-0.8-0.2l-0.3-0.8c-1.5-4.7-7.2-7-11-8.5
				c-2-0.8-3.3-1.3-4-2.1c-0.9-1-7.8-5.4-14.6-9.6c0.1,10.9-3.4,21.4-10.1,30c6.5,10.5,23.6,16.4,24.8,16.8c7.5,1.7,13,1,16.6-1.9
				c5.5-4.5,5.2-13.2,5.1-17.4c0-0.9,0-1.6,0-2c0.1-2.8-9.3-38.9-15.3-61l-0.1-0.2l0-0.2c0.2-6.1-3.7-11.6-9.5-13.5
				c-11.2-4.1-59-17.8-59.4-18l0.8-2.9c2,0.6,48.4,13.9,59.6,18c6.9,2.3,11.6,8.9,11.5,16.2c2.8,10.2,15.7,58.4,15.3,61.8
				c0,0.3,0,0.9,0,1.7c0.1,4.3,0.4,14.4-6.2,19.8C343.4,262.6,339.6,263.8,335,263.8z"/>
		</g>
		<g>
			<path class="st1" d="M295.2,154.1c0,0-27.5,47.6-33.3,52.4c-5.8-4.9-31.1-54.1-31.1-54.1S264.6,137.7,295.2,154.1z"/>
			<path class="st0" d="M261.9,207.9l-0.6-0.5c-5.8-4.9-30.3-52.4-31.4-54.4l-0.5-0.9l1-0.4c0.3-0.1,34.6-14.8,65.3,1.7l0.9,0.5
				l-0.5,0.9c-1.1,1.9-27.7,47.8-33.5,52.7L261.9,207.9z M232.2,153c8.5,16.5,24.6,46.4,29.7,52.2c5.3-5.7,22.6-34.7,31.9-50.6
				C267.1,140.7,237.9,150.8,232.2,153z"/>
		</g>
		<g>
			<path class="st2" d="M325.7,85.4L325.7,85.4c0,7.7-6.2,13.9-13.9,13.9h-98.2c-7.7,0-13.9-6.2-13.9-13.9v0
				c0-7.7,6.2-13.9,13.9-13.9h98.2C319.5,71.5,325.7,77.7,325.7,85.4z"/>
			<path class="st0" d="M311.8,100.8h-98.2c-8.5,0-15.4-6.9-15.4-15.4c0-8.5,6.9-15.4,15.4-15.4h98.2c8.5,0,15.4,6.9,15.4,15.4
				C327.2,93.9,320.3,100.8,311.8,100.8z M213.6,73c-6.8,0-12.4,5.6-12.4,12.4c0,6.8,5.6,12.4,12.4,12.4h98.2
				c6.8,0,12.4-5.6,12.4-12.4c0-6.8-5.6-12.4-12.4-12.4H213.6z"/>
		</g>
		<g>
			<path class="st3" d="M263.2,164.4L263.2,164.4c-7.1,0-12.9-5.8-12.9-12.9V51.3c0-7.1,5.8-12.9,12.9-12.9h0
				c7.1,0,12.9,5.8,12.9,12.9v100.2C276.1,158.6,270.4,164.4,263.2,164.4z"/>
			<path class="st0" d="M263.3,165.9c-7.9,0-14.4-6.5-14.4-14.4V51.3c0-7.9,6.5-14.4,14.4-14.4s14.4,6.5,14.4,14.4v100.2
				C277.6,159.5,271.2,165.9,263.3,165.9z M263.3,39.9c-6.3,0-11.4,5.1-11.4,11.4v100.2c0,6.3,5.1,11.4,11.4,11.4
				c6.3,0,11.4-5.1,11.4-11.4V51.3C274.6,45,269.5,39.9,263.3,39.9z"/>
		</g>
		<g>
			<path class="st2" d="M263.3,24.5h19.1c15.1,0,27.4,12.3,27.4,27.4c0,0,0,0,0,0V98c0,25.7-20.8,46.5-46.5,46.5l0,0
				c-25.7,0-46.5-20.8-46.5-46.5c0,0,0,0,0,0V71C216.8,45.3,237.6,24.5,263.3,24.5L263.3,24.5z"/>
			<path class="st0" d="M263.2,146c-12.8,0-24.9-5-33.9-14.1c-9.1-9.1-14.1-21.1-14.1-33.9V71c0-26,20.7-47.2,46.5-48v0l1.5,0h19.1
				c15.9,0,28.9,13,28.9,28.9V98C311.3,124.5,289.7,146,263.2,146C263.3,146,263.3,146,263.2,146z M263.3,26c-24.8,0-45,20.2-45,45
				v27c0,12,4.7,23.3,13.2,31.8c8.5,8.5,19.8,13.2,31.8,13.2c0,0,0,0,0,0c24.8,0,45-20.2,45-45V51.9c0-14.3-11.6-25.9-25.9-25.9
				L263.3,26z"/>
		</g>
		<g>
			<path class="st0" d="M45.6,344.5c0,0-0.1,0-0.1,0c-0.8-0.1-1.4-0.8-1.4-1.6l3.4-37.9c0.1-0.8,0.8-1.4,1.6-1.4
				c0.8,0.1,1.4,0.8,1.4,1.6l-3.4,37.9C47,343.9,46.4,344.5,45.6,344.5z"/>
		</g>
		<g>
			<path class="st0" d="M64.2,339.4c-0.1,0-0.1,0-0.2,0c-0.8-0.1-1.4-0.8-1.3-1.7l3.9-32.9c0.1-0.8,0.8-1.4,1.7-1.3
				c0.8,0.1,1.4,0.8,1.3,1.7L65.7,338C65.6,338.8,65,339.4,64.2,339.4z"/>
		</g>
		<g>
			<path class="st0" d="M44.7,354.8c0,0-0.1,0-0.1,0c-0.8-0.1-1.4-0.8-1.4-1.6l0.5-5.4c0.1-0.8,0.8-1.4,1.6-1.4
				c0.8,0.1,1.4,0.8,1.4,1.6l-0.5,5.4C46.1,354.2,45.5,354.8,44.7,354.8z"/>
		</g>
		<g>
			<path class="st0" d="M43,367.3c-0.1,0-0.1,0-0.2,0c-0.8-0.1-1.4-0.9-1.3-1.7l1.1-7.6c0.1-0.8,0.9-1.4,1.7-1.3
				c0.8,0.1,1.4,0.9,1.3,1.7l-1.1,7.6C44.4,366.7,43.8,367.3,43,367.3z"/>
		</g>
		<g>
			<path class="st0" d="M63.1,351.5c0,0-0.1,0-0.1,0c-0.8-0.1-1.4-0.8-1.4-1.6l0.6-7.3c0.1-0.8,0.8-1.4,1.6-1.4
				c0.8,0.1,1.4,0.8,1.4,1.6l-0.6,7.3C64.5,351,63.9,351.5,63.1,351.5z"/>
		</g>
		<g>
			<path class="st1" d="M229.7,152.4c0,0,13.7,100.6,12.3,112.9l-4.6,4.5c-2.3-24.8-21.8-74.3-21.8-74.3l11.6-8.7l-11.5-0.8
				c-1.2-6,13.1-33.3,13.1-33.3"/>
			<path class="st0" d="M236.5,272l-0.2-2.1c-2.3-24.4-21.5-73.6-21.7-74.1l-0.3-0.7l10-7.5l-9.6-0.7l-0.1-0.8
				c-1.2-6.2,11.8-31.1,13.2-33.9l0.8,0.4c0,0,0-0.1,0-0.1l2-0.3c0.6,4.1,13.7,100.9,12.3,113.1l0,0.4L236.5,272z M216.8,195.8
				c2.3,6,18.4,48.3,21.3,71.9l2.9-2.8c1-12.4-10.2-96.1-12.1-110.3c-4.1,8-12.3,25-12.4,30.4l13.3,1L216.8,195.8z"/>
		</g>
		<g>
			<path class="st0" d="M479.8,348c-0.8,0-1.4-0.6-1.5-1.4l-3.4-37.9c-0.1-0.8,0.5-1.6,1.4-1.6c0.8-0.1,1.6,0.5,1.6,1.4l3.4,37.9
				c0.1,0.8-0.5,1.6-1.4,1.6C479.8,348,479.8,348,479.8,348z"/>
		</g>
		<g>
			<path class="st0" d="M461.1,342.9c-0.8,0-1.4-0.6-1.5-1.3l-3.9-32.9c-0.1-0.8,0.5-1.6,1.3-1.7c0.8-0.1,1.6,0.5,1.7,1.3l3.9,32.9
				c0.1,0.8-0.5,1.6-1.3,1.7C461.3,342.9,461.2,342.9,461.1,342.9z"/>
		</g>
		<g>
			<path class="st0" d="M481.4,359.4c-0.8,0-1.4-0.6-1.5-1.4l-0.5-5.4c-0.1-0.8,0.5-1.6,1.4-1.6c0.8-0.1,1.6,0.5,1.6,1.4l0.5,5.4
				c0.1,0.8-0.5,1.6-1.4,1.6C481.5,359.4,481.5,359.4,481.4,359.4z"/>
		</g>
		<g>
			<path class="st0" d="M483.1,372c-0.7,0-1.4-0.5-1.5-1.3l-1-7.6c-0.1-0.8,0.5-1.6,1.3-1.7c0.8-0.1,1.6,0.5,1.7,1.3l1,7.6
				c0.1,0.8-0.5,1.6-1.3,1.7C483.3,372,483.2,372,483.1,372z"/>
		</g>
		<g>
			<path class="st0" d="M462.6,354.9c-0.8,0-1.4-0.6-1.5-1.4l-0.6-7.3c-0.1-0.8,0.5-1.6,1.4-1.6c0.8-0.1,1.6,0.5,1.6,1.4l0.6,7.3
				c0.1,0.8-0.5,1.6-1.4,1.6C462.7,354.9,462.6,354.9,462.6,354.9z"/>
		</g>
		<g>
			<path class="st1" d="M295.7,153.4c0,0-13.7,100.6-12.3,112.9l4.6,4.5c2.3-24.8,21.8-74.4,21.8-74.4l-11.6-8.7l11.5-0.8
				c1.2-6-13.1-33.3-13.1-33.3"/>
			<path class="st0" d="M288.8,273l-6.4-6.2l0-0.4c-1.4-12.3,11.7-109,12.3-113.1l2,0.3c0,0,0,0,0,0.1l0.8-0.4
				c1.5,2.8,14.4,27.8,13.2,33.9l-0.1,0.8l-9.6,0.7l10,7.5l-0.3,0.7c-0.2,0.5-19.4,49.7-21.7,74.1L288.8,273z M284.3,265.9l2.9,2.8
				c2.9-23.6,19-65.9,21.3-71.9l-13.1-9.8l13.3-1c-0.1-5.4-8.3-22.5-12.4-30.5C294.5,169.7,283.4,253.5,284.3,265.9z"/>
		</g>
		<g>
			<polygon class="st2" points="70.3,309.1 43.2,309.1 43.2,277.6 79.3,277.6 			"/>
			<path class="st0" d="M71.1,310.2H42.2v-33.5h38.5L71.1,310.2z M44.2,308.2h25.4l8.4-29.5H44.2V308.2z"/>
		</g>
		<g>
			<polygon class="st2" points="480.6,309.1 453.4,309.1 445.8,277.6 480.9,277.6 			"/>
			<path class="st0" d="M481.6,310.2h-28.9l-8.1-33.5h37.3L481.6,310.2z M454.2,308.2h25.4l0.3-29.5h-32.8L454.2,308.2z"/>
		</g>
		<g>
			<path class="st3" d="M309.7,100.4c0,0-25.5,24.7-24.8,18.6s-7-6.5-7-6.5s-27.5,0.3-31.7,0s-5.3,7.3-7.9,6.8s-20.6-16.2-20.6-16.2
				s2.1,41.2,45.6,41.3S309.7,100.4,309.7,100.4z"/>
			<path class="st0" d="M263.4,145.5c-0.1,0-0.1,0-0.1,0c-43.9-0.1-46.6-41.8-46.6-42.2l-0.1-2.4l1.8,1.5
				c8.7,7.6,18.6,15.6,20.2,15.9c0.5,0.1,1.4-1.3,2-2.3c1.3-2.1,2.9-4.7,5.8-4.5c4.1,0.3,31.3,0,31.6,0c0.3,0,4.4,0.3,6.7,3
				c1,1.2,1.5,2.7,1.3,4.5c2.8-0.8,13.9-10.3,23.1-19.3l1.9-1.8l-0.2,2.6C310.7,101,307.2,145.5,263.4,145.5z M218.9,105.7
				c0.5,3.6,2,10.7,6.1,17.7c7.7,13.3,20.6,20.1,38.2,20.1c0,0,0.1,0,0.1,0c35.7,0,43.4-30.9,45-40.4c-2.1,2-5.6,5.2-9.2,8.4
				c-12,10.5-13.5,9.8-14.5,9.4c-0.3-0.1-1-0.6-0.9-1.9c0.1-1.3-0.2-2.3-0.9-3.2c-1.4-1.7-4.2-2.2-5.2-2.2c-1.1,0-27.5,0.3-31.7,0
				c-1.6-0.1-2.6,1.4-4,3.5c-1.1,1.8-2.2,3.6-4.1,3.3C235.7,119.9,224.1,110.1,218.9,105.7z"/>
		</g>
		<g>
			<path class="st1" d="M1.5,276.9v-13.2l0,0H522l0,0v13.2c0,4.6-3.7,8.2-8.2,8.2H9.8C5.2,285.2,1.5,281.5,1.5,276.9L1.5,276.9
				L1.5,276.9z"/>
			<path class="st0" d="M513.8,286.7H9.8c-4.9,0-8.9-3.6-9.6-8.2H0l0-1.5v-14.7h523.5v14.7C523.5,282.3,519.1,286.7,513.8,286.7z
				 M3,275.4L3,275.4l0,1.5c0,3.7,3,6.7,6.7,6.7h504c3.7,0,6.7-3,6.7-6.7v-11.7H3V275.4z"/>
		</g>
		<g>
			<path class="st0" d="M253,124.7c-0.5,0-1-0.2-1.2-0.7c-0.5-0.7-0.3-1.6,0.4-2.1c8.6-5.7,21.4-0.8,21.9-0.6
				c0.8,0.3,1.1,1.2,0.8,1.9c-0.3,0.8-1.2,1.2-1.9,0.8c-0.1,0-11.9-4.6-19.1,0.3C253.6,124.6,253.3,124.7,253,124.7z"/>
		</g>
		<g>
			<path class="st0" d="M263.3,105.3c-4.2,0-7.6-3-7.6-6.7c0-0.6,0.4-1,1-1s1,0.4,1,1c0,2.6,2.5,4.7,5.6,4.7c3.1,0,5.6-2.1,5.6-4.7
				c0-0.6,0.4-1,1-1s1,0.4,1,1C270.8,102.3,267.4,105.3,263.3,105.3z"/>
		</g>
		<g>
			<circle class="st0" cx="241.8" cy="84.1" r="2.7"/>
			<path class="st0" d="M241.8,87.8c-2,0-3.7-1.6-3.7-3.7s1.6-3.7,3.7-3.7s3.7,1.6,3.7,3.7S243.9,87.8,241.8,87.8z M241.8,82.5
				c-0.9,0-1.7,0.7-1.7,1.7c0,0.9,0.7,1.7,1.7,1.7c0.9,0,1.7-0.7,1.7-1.7C243.5,83.2,242.8,82.5,241.8,82.5z"/>
		</g>
		<g>
			<circle class="st0" cx="284.8" cy="84.1" r="2.7"/>
			<path class="st0" d="M284.8,87.8c-2,0-3.7-1.6-3.7-3.7s1.6-3.7,3.7-3.7s3.7,1.6,3.7,3.7S286.8,87.8,284.8,87.8z M284.8,82.5
				c-0.9,0-1.7,0.7-1.7,1.7c0,0.9,0.7,1.7,1.7,1.7s1.7-0.7,1.7-1.7C286.5,83.2,285.7,82.5,284.8,82.5z"/>
		</g>
		<g>
			<path class="st4" d="M207.5,250"/>
		</g>
		<g>
			<path class="st0" d="M241.8,73c-5.8,0-10.7-2.9-11.1-3.1c-0.5-0.3-0.6-0.9-0.3-1.4c0.3-0.5,0.9-0.6,1.4-0.3
				c0.1,0.1,10.5,6.2,18,0.1c0.4-0.3,1.1-0.3,1.4,0.1s0.3,1.1-0.1,1.4C248,72.2,244.8,73,241.8,73z"/>
		</g>
		<g>
			<path class="st0" d="M285.8,73c-5.8,0-10.8-2.9-11.1-3.1c-0.5-0.3-0.6-0.9-0.3-1.4c0.3-0.5,0.9-0.6,1.4-0.3
				c0.1,0.1,10.5,6.2,18,0.1c0.4-0.3,1.1-0.3,1.4,0.1c0.3,0.4,0.3,1.1-0.1,1.4C292.1,72.2,288.8,73,285.8,73z"/>
		</g>
		<g>
			<path class="st3" d="M216.8,61.5c0,0-7-51.6,29.8-55.2c0,0-0.8,1.9,0,5.8c8.8-7.3,19.8-11.2,31.2-11c-1.7,2-1.7,4.9,0,6.9
				c0,0,36.6-0.3,32,51.9c0,0-9.3-11.2-15.5-11.6c0,0-2.1-22-18.6-19.3s-26.4-0.4-26.4-0.4C242,31,235.7,35.7,231.2,42
				C222,54.7,216.8,61.5,216.8,61.5z"/>
			<path class="st0" d="M216.1,64l-0.3-2.4c-0.2-1.2-3.7-28.7,9.2-45.1c5.2-6.6,12.5-10.4,21.5-11.3l1.7-0.2l-0.7,1.6
				c0,0-0.5,1.2-0.2,3.5C256,3.4,266.7-0.2,277.8,0l2.1,0l-1.4,1.6c-1.3,1.5-1.4,3.7-0.3,5.2c2.5,0.1,13.5,1.1,22.2,10.5
				c8.5,9.3,12,23.5,10.3,42.5l-0.2,2.4l-1.6-1.9c-2.5-3-10-10.9-14.7-11.2l-0.9-0.1l-0.1-0.9c0-0.1-1.1-11.2-7.6-16.2
				c-2.7-2.1-6-2.8-9.8-2.2c-15.1,2.5-24.7,0.2-26.6-0.3c-7,2.5-13,7-17.3,13c-9.1,12.6-14.4,19.4-14.5,19.5L216.1,64z M245.3,7.4
				c-7.8,1.1-14.1,4.6-18.8,10.4c-10.2,12.9-9.6,33.9-9,41.1c2.2-2.9,6.6-8.8,12.9-17.4c4.6-6.5,11.1-11.3,18.6-13.8l0.3-0.1
				l0.3,0.1c0.1,0,9.9,3,26,0.3c4.4-0.7,8.2,0.1,11.4,2.6c6.2,4.8,7.9,14,8.3,16.8c4.9,0.9,10.9,6.9,13.7,10
				c1.1-17.1-2.2-30.1-10-38.5c-9-9.8-21-9.9-21.2-9.9c0,0,0,0,0,0l-0.5,0L277,8.5c-1.6-1.9-1.9-4.4-1-6.5
				c-10.5,0.2-20.7,4-28.8,10.8l-1.3,1.1l-0.4-1.6C245.1,10.1,245.2,8.5,245.3,7.4z"/>
		</g>
		<g>
			<path class="st0" d="M66,209c7-0.2,14.1-0.3,21.1-0.4l21.1-0.1l21.1,0.1l10.6,0.1c3.5,0.1,7,0.1,10.6,0.3
				c-3.5,0.1-7,0.2-10.6,0.3l-10.6,0.1l-21.1,0.1l-21.1-0.1C80.1,209.3,73,209.2,66,209z"/>
		</g>
		<g>
			<path class="st0" d="M62,210.8c7.5-0.2,15-0.3,22.5-0.4l22.5-0.1l22.5,0.1l11.3,0.1l11.3,0.3l-11.3,0.2l-11.3,0.1l-22.5,0.1
				l-22.5-0.1C77,211.1,69.5,211,62,210.8z"/>
		</g>
		<g>
			<path class="st0" d="M62.2,215.5c7.5-0.2,15-0.3,22.5-0.4l22.5-0.1l22.5,0.1l11.3,0.1l11.3,0.3l-11.3,0.3l-11.3,0.1l-22.5,0.1
				l-22.5-0.1C77.2,215.8,69.7,215.8,62.2,215.5z"/>
		</g>
		<g>
			<path class="st0" d="M62.6,217.5c7.5-0.2,15-0.3,22.5-0.4l22.5-0.1l22.5,0.1l11.3,0.1l11.3,0.3l-11.3,0.3l-11.3,0.1l-22.5,0.1
				l-22.5-0.1C77.6,217.8,70.1,217.7,62.6,217.5z"/>
		</g>
		<g>
			<path class="st0" d="M62.8,219.1c7.5-0.2,15-0.3,22.5-0.4l22.5-0.1l22.5,0.1l11.3,0.1l11.3,0.3l-11.3,0.3l-11.3,0.1l-22.5,0.1
				l-22.5-0.1C77.9,219.4,70.3,219.3,62.8,219.1z"/>
		</g>
		<g>
			<path class="st0" d="M59,212.3c7.5-0.2,15-0.3,22.5-0.4l22.5-0.1l22.5,0.1l11.3,0.1l11.3,0.3l-11.3,0.3l-11.3,0.1l-22.5,0.1
				l-22.5-0.1C74,212.6,66.5,212.5,59,212.3z"/>
		</g>
		<g>
			<path class="st0" d="M59,214.1c7.5-0.2,15-0.3,22.5-0.4l22.5-0.1l22.5,0.1l11.3,0.1l11.3,0.3l-11.3,0.3l-11.3,0.1l-22.5,0.1
				l-22.5-0.1C74,214.4,66.5,214.3,59,214.1z"/>
		</g>
		<g>
			<path class="st3" d="M54.5,213.9L54.5,213.9c0-3.9,3.2-7.1,7.1-7.1l0,0h82.2l0,0V221l0,0H61.6C57.7,221,54.5,217.9,54.5,213.9
				C54.5,213.9,54.5,213.9,54.5,213.9z"/>
			<path class="st0" d="M144.7,222H61.6c-4.5,0-8.1-3.6-8.1-8.1v0c0-4.5,3.6-8.1,8.1-8.1h83.2V222z M61.6,207.8
				c-3.4,0-6.1,2.7-6.1,6.1v0c0,3.4,2.7,6.1,6.1,6.1h81.2v-12.2H61.6z"/>
		</g>
		<g>
			<path class="st1" d="M54.5,214.4L54.5,214.4c0-3.9,3.2-7.1,7.1-7.1h3.2l0,0v14.2l0,0h-3.2C57.7,221.4,54.5,218.3,54.5,214.4
				C54.5,214.4,54.5,214.4,54.5,214.4z"/>
			<path class="st0" d="M65.8,222.5h-4.2c-4.5,0-8.1-3.6-8.1-8.1v0c0-4.5,3.6-8.1,8.1-8.1h4.2V222.5z M61.6,208.3
				c-3.4,0-6.1,2.7-6.1,6.1v0c0,3.4,2.7,6.1,6.1,6.1h2.2v-12.2H61.6z"/>
		</g>
		<g>
			<path class="st0" d="M62,224.4c7-0.2,14.1-0.3,21.1-0.4l21.1-0.1l21.1,0.1l10.6,0.1c3.5,0.1,7,0.1,10.6,0.3
				c-3.5,0.1-7,0.2-10.6,0.3l-10.6,0.1l-21.1,0.1l-21.1-0.1C76.1,224.7,69,224.6,62,224.4z"/>
		</g>
		<g>
			<path class="st0" d="M59,226.9c7.5-0.2,15-0.3,22.5-0.4l22.5-0.1l22.5,0.1l11.3,0.1l11.3,0.3l-11.3,0.3l-11.3,0.1l-22.5,0.1
				l-22.5-0.1C74,227.2,66.5,227.1,59,226.9z"/>
		</g>
		<g>
			<path class="st0" d="M60,229.7c7.5-0.2,15-0.3,22.5-0.4l22.5-0.1l22.5,0.1l11.3,0.1l11.3,0.3l-11.3,0.3l-11.3,0.1l-22.5,0.1
				l-22.5-0.1C75,230,67.5,229.9,60,229.7z"/>
		</g>
		<g>
			<path class="st0" d="M60,232.6c7.5-0.2,15-0.3,22.5-0.4l22.5-0.1l22.5,0.1l11.3,0.1l11.3,0.3l-11.3,0.3l-11.3,0.1l-22.5,0.1
				L82.6,233C75,232.9,67.5,232.8,60,232.6z"/>
		</g>
		<g>
			<path class="st2" d="M51.4,228.5L51.4,228.5c0-3.9,3.2-7.1,7.1-7.1l0,0h82.2l0,0v14.2l0,0H58.5C54.6,235.6,51.4,232.5,51.4,228.5
				C51.4,228.5,51.4,228.5,51.4,228.5z"/>
			<path class="st0" d="M58.5,236.6c-4.4,0-8.1-3.6-8.1-8.1v0c0-4.5,3.6-8.1,8.1-8.1h83.2v16.2H58.5
				C58.5,236.6,58.5,236.6,58.5,236.6z M58.5,222.5c-3.4,0-6.1,2.7-6.1,6.1v0c0,3.3,2.7,6.1,6.1,6.1c0,0,0,0,0,0h81.2v-12.2H58.5z"
				/>
		</g>
		<g>
			<path class="st1" d="M51.4,228.5L51.4,228.5c0-3.9,3.2-7.1,7.1-7.1l0,0h3.2l0,0v14.2l0,0h-3.2C54.5,235.6,51.4,232.4,51.4,228.5
				L51.4,228.5z"/>
			<path class="st0" d="M62.6,236.6h-4.2c-4.5,0-8.1-3.6-8.1-8.1s3.6-8.1,8.1-8.1h4.2V236.6z M58.5,222.5c-3.4,0-6.1,2.7-6.1,6.1
				s2.7,6.1,6.1,6.1h2.2v-12.2H58.5z"/>
		</g>
		<g>
			<path class="st0" d="M64.3,180.1c7-0.2,14.1-0.3,21.1-0.4l21.1-0.1l21.1,0.1l10.6,0.1c3.5,0.1,7,0.1,10.6,0.3
				c-3.5,0.1-7,0.2-10.6,0.3l-10.6,0.1l-21.1,0.1l-21.1-0.1C78.4,180.4,71.4,180.3,64.3,180.1z"/>
		</g>
		<g>
			<path class="st0" d="M61.3,181.6c7.5-0.2,15-0.3,22.5-0.4l22.5-0.1l22.5,0.1l11.3,0.1l11.3,0.3l-11.3,0.3l-11.3,0.1l-22.5,0.1
				L83.9,182C76.3,181.9,68.8,181.8,61.3,181.6z"/>
		</g>
		<g>
			<path class="st0" d="M62.3,183.4c7.5-0.2,15-0.3,22.5-0.4l22.5-0.1l22.5,0.1l11.3,0.1l11.3,0.3l-11.3,0.3l-11.3,0.1l-22.5,0.1
				l-22.5-0.1C77.3,183.7,69.8,183.6,62.3,183.4z"/>
		</g>
		<g>
			<path class="st0" d="M62.3,185.3c7.5-0.2,15-0.3,22.5-0.4l22.5-0.1l22.5,0.1l11.3,0.1l11.3,0.3l-11.3,0.3l-11.3,0.1l-22.5,0.1
				l-22.5-0.1C77.3,185.6,69.8,185.5,62.3,185.3z"/>
		</g>
		<g>
			<path class="st0" d="M62.3,187.3c7.5-0.2,15-0.3,22.5-0.4l22.5-0.1l22.5,0.1l11.3,0.1l11.3,0.3l-11.3,0.3l-11.3,0.1l-22.5,0.1
				l-22.5-0.1C77.3,187.6,69.8,187.5,62.3,187.3z"/>
		</g>
		<g>
			<path class="st0" d="M62.3,189.3c7.5-0.2,15-0.3,22.5-0.4l22.5-0.1l22.5,0.1l11.3,0.1l11.3,0.3l-11.3,0.3l-11.3,0.1l-22.5,0.1
				l-22.5-0.1C77.3,189.6,69.8,189.5,62.3,189.3z"/>
		</g>
		<g>
			<path class="st2" d="M54.7,185.2L54.7,185.2c0-3.9,3.2-7.1,7.1-7.1l0,0h82.2l0,0v14.2l0,0H61.8C57.9,192.3,54.7,189.2,54.7,185.2
				C54.7,185.2,54.7,185.2,54.7,185.2z"/>
			<path class="st0" d="M61.8,193.3c-2.2,0-4.2-0.8-5.7-2.4c-1.5-1.5-2.4-3.6-2.4-5.7v0c0-4.5,3.6-8.1,8.1-8.1h83.2v16.2H61.8
				C61.8,193.3,61.8,193.3,61.8,193.3z M61.8,179.1c-3.4,0-6.1,2.7-6.1,6.1v0c0,1.6,0.6,3.1,1.8,4.3c1.1,1.1,2.7,1.8,4.3,1.8
				c0,0,0,0,0,0h81.2v-12.2H61.8z"/>
		</g>
		<g>
			<path class="st1" d="M54.7,185.2L54.7,185.2c0-3.9,3.2-7.1,7.1-7.1l0,0h3.2l0,0v14.2l0,0h-3.2C57.9,192.3,54.7,189.1,54.7,185.2
				C54.7,185.2,54.7,185.2,54.7,185.2z"/>
			<path class="st0" d="M65.9,193.3h-4.2c-4.5,0-8.1-3.6-8.1-8.1v0c0-4.5,3.6-8.1,8.1-8.1h4.2V193.3z M61.8,179.1
				c-3.4,0-6.1,2.7-6.1,6.1v0c0,3.4,2.7,6.1,6.1,6.1h2.2v-12.2H61.8z"/>
		</g>
		<g>
			<path class="st0" d="M63,252.6c7-0.2,14.1-0.3,21.1-0.4l21.1-0.1l21.1,0.1l10.6,0.1c3.5,0.1,7,0.1,10.6,0.3
				c-3.5,0.1-7,0.2-10.6,0.3l-10.6,0.1l-21.1,0.1L84.1,253C77.1,252.9,70,252.9,63,252.6z"/>
		</g>
		<g>
			<path class="st0" d="M58,254.1c7.5-0.2,15-0.3,22.5-0.4l22.5-0.1l22.5,0.1l11.3,0.1l11.3,0.3l-11.3,0.3l-11.3,0.1l-22.5,0.1
				l-22.5-0.1C73,254.4,65.5,254.4,58,254.1z"/>
		</g>
		<g>
			<path class="st0" d="M58,257.5c7.5-0.2,15-0.3,22.5-0.4l22.5-0.1l22.5,0.1l11.3,0.1l11.3,0.3l-11.3,0.3l-11.3,0.1l-22.5,0.1
				l-22.5-0.1C73,257.8,65.5,257.8,58,257.5z"/>
		</g>
		<g>
			<path class="st0" d="M58,258.7c7.5-0.2,15-0.3,22.5-0.4l22.5-0.1l22.5,0.1l11.3,0.1l11.3,0.3l-11.3,0.3l-11.3,0.1l-22.5,0.1
				l-22.5-0.1C73,259,65.5,258.9,58,258.7z"/>
		</g>
		<g>
			<path class="st0" d="M58,260c7.5-0.2,15-0.3,22.5-0.4l22.5-0.1l22.5,0.1l11.3,0.1l11.3,0.3l-11.3,0.3l-11.3,0.1l-22.5,0.1
				l-22.5-0.1C73,260.3,65.5,260.2,58,260z"/>
		</g>
		<g>
			<path class="st0" d="M58,261.4c7.5-0.2,15-0.3,22.5-0.4l22.5-0.1l22.5,0.1l11.3,0.1l11.3,0.3l-11.3,0.3l-11.3,0.1l-22.5,0.1
				l-22.5-0.1C73,261.7,65.5,261.6,58,261.4z"/>
		</g>
		<g>
			<path class="st0" d="M56.5,255.3c7.5-0.2,15-0.3,22.5-0.4l22.5-0.1l22.5,0.1l11.3,0.1l11.3,0.3l-11.3,0.3l-11.3,0.1l-22.5,0.1
				L79,255.6C71.5,255.6,64,255.5,56.5,255.3z"/>
		</g>
		<g>
			<path class="st0" d="M56.5,256.3c7.5-0.2,15-0.3,22.5-0.4l22.5-0.1l22.5,0.1l11.3,0.1l11.3,0.3l-11.3,0.3l-11.3,0.1l-22.5,0.1
				L79,256.7C71.5,256.6,64,256.5,56.5,256.3z"/>
		</g>
		<g>
			<path class="st2" d="M51.4,256.8L51.4,256.8c0-3.9,3.2-7.1,7.1-7.1l0,0h82.2l0,0v14.2l0,0H58.5C54.6,263.8,51.4,260.7,51.4,256.8
				C51.4,256.8,51.4,256.8,51.4,256.8z"/>
			<path class="st0" d="M58.5,264.8c-2.2,0-4.2-0.8-5.7-2.4c-1.5-1.5-2.4-3.6-2.4-5.7v0c0-4.5,3.6-8.1,8.1-8.1h83.2v16.2H58.5
				C58.5,264.8,58.5,264.8,58.5,264.8z M58.5,250.7c-3.4,0-6.1,2.7-6.1,6.1v0c0,1.6,0.6,3.1,1.8,4.3c1.1,1.1,2.7,1.8,4.3,1.8
				c0,0,0,0,0,0h81.2v-12.2H58.5z"/>
		</g>
		<g>
			<path class="st1" d="M51.4,256.8L51.4,256.8c0-3.9,3.2-7.1,7.1-7.1h3.2l0,0v14.2l0,0h-3.2C54.5,263.8,51.4,260.7,51.4,256.8z"/>
			<path class="st0" d="M62.6,264.8h-4.2c-4.5,0-8.1-3.6-8.1-8.1s3.6-8.1,8.1-8.1h4.2V264.8z M58.5,250.7c-3.4,0-6.1,2.7-6.1,6.1
				s2.7,6.1,6.1,6.1h2.2v-12.2H58.5z"/>
		</g>
		<g>
			<path class="st5" d="M67.6,242.6L67.6,242.6c0-3.9,3.1-7,7-7h82.2l0,0v14l0,0H74.5C70.7,249.5,67.6,246.4,67.6,242.6z"/>
			<path class="st0" d="M157.8,250.5H74.5c-4.4,0-7.9-3.6-7.9-8v0c0-4.4,3.6-8,8-8h83.2V250.5z M68.5,242.6c0,3.3,2.7,5.9,5.9,6
				h81.3v-12H74.5C71.2,236.6,68.6,239.3,68.5,242.6z"/>
		</g>
		<g>
			<path class="st1" d="M68,242.6L68,242.6c0-3.9,3.2-7.1,7.1-7.1l0,0h3.2l0,0v14.2l0,0h-3.2C71.2,249.7,68,246.5,68,242.6L68,242.6
				L68,242.6z"/>
			<path class="st0" d="M79.3,250.7h-4.2c-4.5,0-8.1-3.6-8.1-8.1v0c0-4.5,3.6-8.1,8.1-8.1h4.2V250.7z M75.1,236.5
				c-3.4,0-6.1,2.7-6.1,6.1v0c0,3.4,2.7,6.1,6.1,6.1h2.2v-12.2H75.1z"/>
		</g>
		<g>
			<path class="st5" d="M61.6,199.2L61.6,199.2c0-3.9,3.1-7,7-7h82.3l0,0v14l0,0H68.6C64.8,206.1,61.6,203,61.6,199.2z"/>
			<path class="st0" d="M151.9,207.2H68.6c-4.4,0-8-3.6-8-8v0c0-4.4,3.6-8,8-8h83.3V207.2z M62.6,199.2c0,3.3,2.7,6,6,6h81.3v-12
				H68.6C65.3,193.2,62.6,195.9,62.6,199.2z"/>
		</g>
		<g>
			<path class="st1" d="M62.1,199.2L62.1,199.2c0-3.9,3.2-7.1,7.1-7.1l0,0h3.2l0,0v14.2l0,0h-3.2C65.3,206.3,62.1,203.1,62.1,199.2
				C62.1,199.2,62.1,199.2,62.1,199.2z"/>
			<path class="st0" d="M73.4,207.3h-4.2c-4.5,0-8.1-3.6-8.1-8.1v0c0-4.5,3.6-8.1,8.1-8.1h4.2V207.3z M69.2,193.1
				c-3.4,0-6.1,2.7-6.1,6.1v0c0,3.4,2.7,6.1,6.1,6.1h2.2v-12.2H69.2z"/>
		</g>
		<g>
			<path class="st0" d="M473.9,209c-7,0.2-14.1,0.3-21.1,0.4l-21.1,0.1l-21.1-0.1l-10.5-0.1c-3.5-0.1-7-0.1-10.6-0.3
				c3.5-0.1,7-0.2,10.6-0.3l10.6-0.1l21.1-0.1l21.1,0.1C459.8,208.7,466.9,208.8,473.9,209z"/>
		</g>
		<g>
			<path class="st0" d="M477.9,210.8c-7.5,0.2-15,0.3-22.5,0.4l-22.5,0.1l-22.5-0.1L399,211l-11.3-0.3l11.3-0.3l11.3-0.1l22.5-0.1
				l22.5,0.1C462.9,210.5,470.4,210.6,477.9,210.8z"/>
		</g>
		<g>
			<path class="st0" d="M477.7,215.5c-7.5,0.2-15,0.3-22.5,0.4l-22.5,0.1l-22.5-0.1l-11.3-0.1l-11.3-0.3l11.3-0.3l11.3-0.1l22.5-0.1
				l22.5,0.1C462.7,215.2,470.2,215.3,477.7,215.5z"/>
		</g>
		<g>
			<path class="st0" d="M477.3,217.5c-7.5,0.2-15,0.3-22.5,0.4l-22.5,0.1l-22.5-0.1l-11.3-0.1l-11.3-0.3l11.3-0.3l11.3-0.1l22.5-0.1
				l22.5,0.1C462.3,217.2,469.8,217.3,477.3,217.5z"/>
		</g>
		<g>
			<path class="st0" d="M477.1,219.1c-7.5,0.2-15,0.3-22.5,0.4l-22.5,0.1l-22.5-0.1l-11.3-0.1l-11.3-0.3l11.3-0.3l11.3-0.1l22.5-0.1
				l22.5,0.1C462,218.8,469.5,218.9,477.1,219.1z"/>
		</g>
		<g>
			<path class="st0" d="M480.9,212.3c-7.5,0.2-15,0.3-22.5,0.4l-22.5,0.1l-22.5-0.1l-11.3-0.1l-11.3-0.3l11.3-0.3l11.3-0.1l22.5-0.1
				l22.5,0.1C465.9,212,473.4,212.1,480.9,212.3z"/>
		</g>
		<g>
			<path class="st0" d="M480.9,214.1c-7.5,0.2-15,0.3-22.5,0.4l-22.5,0.1l-22.5-0.1l-11.3-0.1l-11.3-0.3l11.3-0.3l11.3-0.1l22.5-0.1
				l22.5,0.1C465.9,213.8,473.4,213.9,480.9,214.1z"/>
		</g>
		<g>
			<path class="st3" d="M396.1,221v-14.2l0,0h82.2c3.9,0,7.1,3.2,7.1,7.1l0,0c0,3.9-3.2,7.1-7.1,7.1L396.1,221L396.1,221z"/>
			<path class="st0" d="M478.3,222h-82.2v-1h-1v-15.2h83.2c4.5,0,8.1,3.6,8.1,8.1S482.8,222,478.3,222z M397.2,220h81.2
				c3.4,0,6.1-2.7,6.1-6.1s-2.7-6.1-6.1-6.1h-81.2V220z"/>
		</g>
		<g>
			<path class="st1" d="M475.2,221.4v-14.2l0,0h3.2c3.9,0,7.1,3.2,7.1,7.1l0,0c0,3.9-3.2,7.1-7.1,7.1L475.2,221.4L475.2,221.4
				L475.2,221.4z"/>
			<path class="st0" d="M478.3,222.4h-3.2v-1h-1v-15.2h4.2c4.5,0,8.1,3.6,8.1,8.1S482.8,222.4,478.3,222.4z M476.2,220.4h2.2
				c3.4,0,6.1-2.7,6.1-6.1s-2.7-6.1-6.1-6.1h-2.2V220.4z"/>
		</g>
		<g>
			<path class="st0" d="M477.9,224.4c-7,0.2-14.1,0.3-21.1,0.4l-21.1,0.1l-21.1-0.1l-10.5-0.1c-3.5-0.1-7-0.1-10.6-0.3
				c3.5-0.1,7-0.2,10.6-0.3l10.6-0.1l21.1-0.1l21.1,0.1C463.8,224.1,470.9,224.2,477.9,224.4z"/>
		</g>
		<g>
			<path class="st0" d="M480.9,226.9c-7.5,0.2-15,0.3-22.5,0.4l-22.5,0.1l-22.5-0.1l-11.3-0.1l-11.3-0.3l11.3-0.3l11.3-0.1l22.5-0.1
				l22.5,0.1C465.9,226.6,473.4,226.7,480.9,226.9z"/>
		</g>
		<g>
			<path class="st0" d="M479.9,229.7c-7.5,0.2-15,0.3-22.5,0.4l-22.5,0.1l-22.5-0.1l-11.3-0.1l-11.3-0.3l11.3-0.3l11.3-0.1l22.5-0.1
				l22.5,0.1C464.9,229.4,472.4,229.5,479.9,229.7z"/>
		</g>
		<g>
			<path class="st0" d="M479.9,232.6c-7.5,0.2-15,0.3-22.5,0.4l-22.5,0.1l-22.5-0.1l-11.3-0.1l-11.3-0.3l11.3-0.3l11.3-0.1l22.5-0.1
				l22.5,0.1C464.9,232.3,472.4,232.4,479.9,232.6z"/>
		</g>
		<g>
			<path class="st2" d="M399.3,235.6v-14.2l0,0h82.2c3.9,0,7.1,3.2,7.1,7.1l0,0c0,3.9-3.2,7.1-7.1,7.1L399.3,235.6L399.3,235.6
				L399.3,235.6z"/>
			<path class="st0" d="M481.4,236.6h-82.2v-1h-1v-15.2h83.2c4.5,0,8.1,3.6,8.1,8.1S485.9,236.6,481.4,236.6z M400.3,234.6h81.2
				c3.4,0,6.1-2.7,6.1-6.1s-2.7-6.1-6.1-6.1h-81.2V234.6z"/>
		</g>
		<g>
			<path class="st1" d="M478.3,235.6v-14.2l0,0h3.2c3.9,0,7.1,3.2,7.1,7.1l0,0c0,3.9-3.2,7.1-7.1,7.1L478.3,235.6L478.3,235.6z"/>
			<path class="st0" d="M481.4,236.6h-3.2v-1h-1v-15.2h4.2c4.5,0,8.1,3.6,8.1,8.1S485.9,236.6,481.4,236.6z M479.3,234.6h2.2
				c3.4,0,6.1-2.7,6.1-6.1c0-3.4-2.7-6.1-6.1-6.1h-2.2V234.6z"/>
		</g>
		<g>
			<path class="st0" d="M475.6,180.1c-7,0.2-14.1,0.3-21.1,0.4l-21.1,0.1l-21.1-0.1l-10.6-0.1c-3.5-0.1-7-0.1-10.6-0.3
				c3.5-0.1,7-0.2,10.6-0.3l10.6-0.1l21.1-0.1l21.1,0.1C461.5,179.8,468.5,179.9,475.6,180.1z"/>
		</g>
		<g>
			<path class="st0" d="M478.6,181.6c-7.5,0.2-15,0.3-22.5,0.4l-22.5,0.1L411,182l-11.3-0.1l-11.3-0.3l11.3-0.3l11.3-0.1l22.5-0.1
				l22.5,0.1C463.5,181.3,471.1,181.4,478.6,181.6z"/>
		</g>
		<g>
			<path class="st0" d="M477.6,183.4c-7.5,0.2-15,0.3-22.5,0.4l-22.5,0.1l-22.5-0.1l-11.3-0.1l-11.3-0.3l11.3-0.3L410,183l22.5-0.1
				L455,183C462.5,183.1,470.1,183.2,477.6,183.4z"/>
		</g>
		<g>
			<path class="st0" d="M477.6,185.3c-7.5,0.2-15,0.3-22.5,0.4l-22.5,0.1l-22.5-0.1l-11.3-0.1l-11.3-0.3l11.3-0.3l11.3-0.1l22.5-0.1
				l22.5,0.1C462.5,185,470.1,185.1,477.6,185.3z"/>
		</g>
		<g>
			<path class="st0" d="M477.6,187.3c-7.5,0.2-15,0.3-22.5,0.4l-22.5,0.1l-22.5-0.1l-11.3-0.1l-11.3-0.3l11.3-0.3l11.3-0.1l22.5-0.1
				L455,187C462.5,187,470.1,187.1,477.6,187.3z"/>
		</g>
		<g>
			<path class="st0" d="M477.6,189.3c-7.5,0.2-15,0.3-22.5,0.4l-22.5,0.1l-22.5-0.1l-11.3-0.1l-11.3-0.3l11.3-0.3l11.3-0.1l22.5-0.1
				l22.5,0.1C462.5,189,470.1,189.1,477.6,189.3z"/>
		</g>
		<g>
			<path class="st2" d="M396,192.3v-14.2l0,0h82.2c3.9,0,7.1,3.2,7.1,7.1l0,0c0,3.9-3.2,7.1-7.1,7.1L396,192.3L396,192.3L396,192.3z
				"/>
			<path class="st0" d="M478.1,193.3H396v-1h-1v-15.2h83.2c4.5,0,8.1,3.6,8.1,8.1S482.6,193.3,478.1,193.3z M397,191.3h81.2
				c3.4,0,6.1-2.7,6.1-6.1s-2.7-6.1-6.1-6.1H397V191.3z"/>
		</g>
		<g>
			<path class="st1" d="M475,192.3v-14.2l0,0h3.2c3.9,0,7.1,3.2,7.1,7.1l0,0c0,3.9-3.2,7.1-7.1,7.1L475,192.3L475,192.3z"/>
			<path class="st0" d="M478.1,193.3H475v-1h-1v-15.2h4.2c4.5,0,8.1,3.6,8.1,8.1S482.6,193.3,478.1,193.3z M476,191.3h2.2
				c3.4,0,6.1-2.7,6.1-6.1s-2.7-6.1-6.1-6.1H476V191.3z"/>
		</g>
		<g>
			<path class="st0" d="M476.9,252.6c-7,0.2-14.1,0.3-21.1,0.4l-21.1,0.1l-21.1-0.1l-10.5-0.1c-3.5-0.1-7-0.1-10.6-0.3
				c3.5-0.1,7-0.2,10.6-0.3l10.6-0.1l21.1-0.1l21.1,0.1C462.8,252.3,469.9,252.4,476.9,252.6z"/>
		</g>
		<g>
			<path class="st0" d="M481.9,254.1c-7.5,0.2-15,0.3-22.5,0.4l-22.5,0.1l-22.5-0.1l-11.3-0.1l-11.3-0.3l11.3-0.2l11.3-0.1l22.5-0.1
				l22.5,0.1C466.9,253.8,474.4,253.9,481.9,254.1z"/>
		</g>
		<g>
			<path class="st0" d="M481.9,257.5c-7.5,0.2-15,0.3-22.5,0.4l-22.5,0.1l-22.5-0.1l-11.3-0.1l-11.3-0.3l11.3-0.2l11.3-0.1l22.5-0.1
				l22.5,0.1C466.9,257.2,474.4,257.3,481.9,257.5z"/>
		</g>
		<g>
			<path class="st0" d="M481.9,258.7c-7.5,0.2-15,0.3-22.5,0.4l-22.5,0.1l-22.5-0.1L403,259l-11.3-0.3l11.3-0.3l11.3-0.1l22.5-0.1
				l22.5,0.1C466.9,258.4,474.4,258.5,481.9,258.7z"/>
		</g>
		<g>
			<path class="st0" d="M481.9,260c-7.5,0.2-15,0.3-22.5,0.4l-22.5,0.1l-22.5-0.1l-11.3-0.1l-11.3-0.3l11.3-0.3l11.3-0.1l22.5-0.1
				l22.5,0.1C466.9,259.7,474.4,259.8,481.9,260z"/>
		</g>
		<g>
			<path class="st0" d="M481.9,261.4c-7.5,0.2-15,0.3-22.5,0.4l-22.5,0.1l-22.5-0.1l-11.3-0.1l-11.3-0.3l11.3-0.3l11.3-0.1l22.5-0.1
				l22.5,0.1C466.9,261.1,474.4,261.2,481.9,261.4z"/>
		</g>
		<g>
			<path class="st0" d="M483.4,255.3c-7.5,0.2-15,0.3-22.5,0.4l-22.5,0.1l-22.5-0.1l-11.3-0.1l-11.3-0.3l11.3-0.3l11.3-0.1l22.5-0.1
				l22.5,0.1C468.4,254.9,475.9,255,483.4,255.3z"/>
		</g>
		<g>
			<path class="st0" d="M483.4,256.3c-7.5,0.2-15,0.3-22.5,0.4l-22.5,0.1l-22.5-0.1l-11.3-0.1l-11.3-0.3l11.3-0.3l11.3-0.1l22.5-0.1
				l22.5,0.1C468.4,256,475.9,256.1,483.4,256.3z"/>
		</g>
		<g>
			<path class="st2" d="M399.3,263.8v-14.2l0,0h82.2c3.9,0,7.1,3.2,7.1,7.1l0,0c0,3.9-3.2,7.1-7.1,7.1L399.3,263.8L399.3,263.8z"/>
			<path class="st0" d="M481.4,264.8h-82.2v-1h-1v-15.2h83.2c4.5,0,8.1,3.6,8.1,8.1S485.9,264.8,481.4,264.8z M400.3,262.8h81.2
				c3.4,0,6.1-2.7,6.1-6.1s-2.7-6.1-6.1-6.1h-81.2V262.8z"/>
		</g>
		<g>
			<path class="st1" d="M478.3,263.8v-14.2l0,0h3.2c3.9,0,7.1,3.2,7.1,7.1l0,0c0,3.9-3.2,7.1-7.1,7.1L478.3,263.8L478.3,263.8z"/>
			<path class="st0" d="M481.4,264.8h-3.2v-1h-1v-15.2h4.2c4.5,0,8.1,3.6,8.1,8.1S485.9,264.8,481.4,264.8z M479.3,262.8h2.2
				c3.4,0,6.1-2.7,6.1-6.1s-2.7-6.1-6.1-6.1h-2.2V262.8z"/>
		</g>
		<g>
			<path class="st5" d="M383.2,249.5v-13.9l0,0h82.3c3.9,0,7,3.1,7,7l0,0c0,3.9-3.1,7-7,7L383.2,249.5L383.2,249.5L383.2,249.5z"/>
			<path class="st0" d="M465.5,250.6h-83.3v-16h83.3c4.4,0,8,3.6,8,8S469.9,250.6,465.5,250.6z M384.2,248.6h81.3c3.3,0,6-2.7,6-6
				s-2.7-6-6-6h-81.3V248.6z"/>
		</g>
		<g>
			<path class="st1" d="M461.7,249.7v-14.2l0,0h3.2c3.9,0,7.1,3.2,7.1,7.1l0,0c0,3.9-3.2,7.1-7.1,7.1L461.7,249.7L461.7,249.7z"/>
			<path class="st0" d="M464.8,250.7h-3.2v-1h-1v-15.2h4.2c4.5,0,8.1,3.6,8.1,8.1S469.3,250.7,464.8,250.7z M462.7,248.7h2.2
				c3.4,0,6.1-2.7,6.1-6.1s-2.7-6.1-6.1-6.1h-2.2V248.7z"/>
		</g>
		<g>
			<path class="st5" d="M389,206.2v-13.9l0,0h82.3c3.9,0,7,3.1,7,7l0,0c0,3.9-3.1,7-7,7L389,206.2L389,206.2L389,206.2z"/>
			<path class="st0" d="M471.3,207.2H388v-16h83.3c4.4,0,8,3.6,8,8S475.7,207.2,471.3,207.2z M390,205.2h81.3c3.3,0,6-2.7,6-6
				s-2.7-6-6-6H390V205.2z"/>
		</g>
		<g>
			<path class="st1" d="M467.5,206.3v-14.2l0,0h3.2c3.9,0,7.1,3.2,7.1,7.1l0,0c0,3.9-3.2,7.1-7.1,7.1L467.5,206.3L467.5,206.3
				L467.5,206.3z"/>
			<path class="st0" d="M470.7,207.3h-3.2v-1h-1v-15.2h4.2c4.5,0,8.1,3.6,8.1,8.1S475.1,207.3,470.7,207.3z M468.5,205.3h2.2
				c3.4,0,6.1-2.7,6.1-6.1c0-3.4-2.7-6.1-6.1-6.1h-2.2V205.3z"/>
		</g>
		<g>
			<path class="st3" d="M217.6,216.1c0,0,7.5-8.8,8.6-10.8s9.1-12.5,9.1-12.5s5.3-5.8,5.3-6.1c1.5-2,3.4-3.6,5.6-4.9
				c2.2-1,11.4-6.4,11.4-6.4s6.5-3.6,3.5,3.6c-0.4,0.9-0.9,1.8-1.5,2.6c0,0,4.7-0.1,2.3,5.2c-0.8,1-1.8,1.8-2.9,2.5
				c-1.5,0.7-9.1,3.8-10.4,4s-3.2,2.7-2.9,5.1c0,0,8.3,0.6,11.3-0.7s3.1-1.2,3.1-1.2s5.1-0.5,2.4,4.3c-1.4,2.5-4,4.1-6.9,4.2
				c-0.6,0-1.2,0.2-1.8,0.5c-1.9,1-3.6,2.2-5.2,3.7c0,0-3.2,2.4-4,2.8s1,2.4,1,2.4s12.6,4.4,16,4.6c0,0,4.2,2.9,0.1,5.1
				s-15.4-1.6-15.4-1.6s-4.4,0-4.9-0.1s-11,7.8-11,7.8s-7.2,4.7-10.9,1.7S217.6,216.1,217.6,216.1z"/>
			<path class="st0" d="M222.5,233.7c-1.4,0-2.7-0.3-3.8-1.2c-4.1-3.3-2.3-15.2-2.1-16.6l0-0.3l0.2-0.2c2.1-2.4,7.6-9,8.5-10.6
				c1.1-2.1,8.8-12.2,9.2-12.6c2.1-2.4,4.5-5,5-5.8v0l0.2-0.3c1.6-2.1,3.6-3.8,5.9-5.2l0.1-0.1c2.1-1,11.2-6.3,11.3-6.4
				c0.6-0.3,3.5-1.8,5.1-0.5c1.4,1.2,0.6,3.6-0.1,5.3c-0.2,0.5-0.5,1-0.8,1.5c0.6,0.2,1.3,0.6,1.8,1.3c0.8,1.2,0.7,2.9-0.2,5
				l-0.1,0.2c-0.9,1.1-1.9,2-3.1,2.7c-1.4,0.7-9.2,3.9-10.8,4.1c-0.6,0.1-1.9,1.5-2.1,3.2c2.7,0.1,7.9,0.2,9.8-0.7
				c2.4-1.1,3.3-1.3,3.7-1.3c0.7,0,2.7,0,3.6,1.4c0.7,1.1,0.5,2.5-0.5,4.3c-1.6,2.8-4.5,4.6-7.7,4.7c-0.5,0-0.9,0.1-1.4,0.4
				c-1.8,1-3.5,2.1-5,3.5l-0.1,0.1c-0.3,0.2-2.5,1.9-3.7,2.6c0.1,0.3,0.4,0.6,0.7,0.9c3.6,1.3,12.8,4.3,15.5,4.5l0.3,0l0.2,0.2
				c0.3,0.2,2.4,1.8,2.3,3.8c-0.1,1.2-0.9,2.2-2.3,3c-4.2,2.3-14.2-0.9-16-1.5c-1.1,0-3.7,0-4.6-0.1c-1.1,0.6-6.1,4.2-10.5,7.6
				C230.6,231,226.4,233.7,222.5,233.7z M218.6,216.5c-0.7,4.7-1,12.5,1.4,14.4c2.6,2.1,7.9-0.6,9.8-1.7c10.7-8.1,11.2-8,11.7-8
				c0.3,0,2.7,0.1,4.8,0.1h0.2l0.2,0.1c3,1,11.5,3.3,14.6,1.7c0.6-0.3,1.3-0.8,1.3-1.4c0-0.7-0.8-1.5-1.3-1.9
				c-3.9-0.4-15.5-4.5-16-4.7L245,215l-0.2-0.2c-0.6-0.7-1.6-1.9-1.4-2.9c0.1-0.4,0.3-0.8,0.7-1c0.5-0.3,2.6-1.8,3.8-2.7
				c1.6-1.5,3.4-2.7,5.3-3.8c0.7-0.4,1.4-0.6,2.2-0.6c2.5-0.1,4.8-1.5,6.1-3.7c0.6-1,0.8-1.9,0.5-2.2c-0.3-0.5-1.4-0.6-2-0.5l-0.1,0
				c-0.2,0-0.8,0.3-2.7,1.1c-3.1,1.4-10.9,0.8-11.7,0.8l-0.8-0.1l-0.1-0.8c-0.3-2.9,1.9-6,3.8-6.2c1.1-0.1,8.5-3.1,10.1-3.9
				c0.9-0.5,1.7-1.2,2.4-2.1c0.6-1.3,0.7-2.4,0.3-2.9c-0.5-0.7-1.7-0.7-1.7-0.7l-2,0l1.1-1.6c0.5-0.8,1-1.6,1.4-2.4
				c0.9-2.1,0.7-2.9,0.6-3c-0.2-0.2-1.6,0.1-2.7,0.7c-0.4,0.2-9.2,5.4-11.4,6.4c-2,1.2-3.8,2.8-5.3,4.7h0c-0.4,0.6-1.7,2.1-5.3,6.1
				c-2.2,2.8-8.1,10.6-8.9,12.3C226.1,207.7,219.9,214.9,218.6,216.5z M241.2,223.2L241.2,223.2L241.2,223.2z M245,212.6
				C245,212.6,245,212.6,245,212.6C245,212.6,245,212.6,245,212.6z"/>
		</g>
		<g>
			<path class="st6" d="M261.3,176.9"/>
		</g>
		<g>
			<path class="st3" d="M252,184.3c0,0,6.5-1.5,7.9-2.5"/>
			<path class="st0" d="M252.2,185.3l-0.4-1.9c2.6-0.6,6.7-1.7,7.5-2.4l1.2,1.6C259.1,183.6,253.4,185,252.2,185.3z"/>
		</g>
		<g>
			<path class="st3" d="M306.1,216.1c0,0-7.5-8.8-8.6-10.8s-9.1-12.5-9.1-12.5s-5.3-5.8-5.3-6.1c-1.5-2-3.4-3.6-5.6-4.9
				c-2.2-1-11.4-6.4-11.4-6.4s-6.5-3.6-3.5,3.6c0.4,0.9,0.9,1.8,1.5,2.6c0,0-4.7-0.1-2.3,5.2c0.8,1,1.7,1.8,2.8,2.5
				c1.5,0.7,9.1,3.8,10.4,4s3.2,2.7,2.9,5.1c0,0-8.3,0.6-11.3-0.7s-3.1-1.2-3.1-1.2s-5.1-0.5-2.4,4.3c1.3,2.4,3.7,3.9,6.5,4.2
				c1.1,0.1,2.3,0.5,3.3,1.1c1.5,0.9,2.9,1.9,4.2,3.1c0,0,3.2,2.4,4,2.8s-1,2.4-1,2.4s-12.6,4.4-16,4.6c0,0-4.2,2.9-0.1,5.1
				s15.4-1.6,15.4-1.6s4.4,0,5-0.1s11,7.8,11,7.8s7.2,4.7,10.9,1.7S306.1,216.1,306.1,216.1z"/>
			<path class="st0" d="M301.2,233.7c-3.9,0-8.1-2.7-8.3-2.8c-4.5-3.4-9.5-7.1-10.6-7.6c-1,0.1-3.6,0.1-4.6,0.1
				c-1.8,0.6-11.8,3.8-16,1.5c-1.5-0.8-2.3-1.8-2.3-3c-0.1-2.1,2.1-3.7,2.3-3.8l0.2-0.2l0.3,0c2.6-0.2,11.8-3.2,15.5-4.5
				c0.3-0.3,0.5-0.7,0.7-0.9c-1.1-0.7-3.4-2.4-3.7-2.6l-0.1-0.1c-1.2-1.1-2.6-2.1-4-3c-0.9-0.5-1.8-0.8-2.9-0.9
				c-3-0.3-5.7-2-7.2-4.7c-1-1.8-1.2-3.2-0.5-4.3c0.9-1.4,2.9-1.5,3.6-1.4c0.4-0.1,1.3,0.2,3.7,1.3c2,0.9,7.1,0.8,9.8,0.7
				c-0.2-1.6-1.5-3.1-2.1-3.2c-1.6-0.2-9.4-3.4-10.8-4.1c-1.3-0.7-2.3-1.7-3.2-2.8L261,187c-1-2.1-1-3.8-0.2-5
				c0.5-0.7,1.1-1.1,1.8-1.3c-0.3-0.5-0.5-1-0.7-1.4c-0.7-1.7-1.5-4.1-0.1-5.3c1.5-1.4,4.5,0.1,5,0.4c0.1,0.1,9.3,5.4,11.4,6.4
				l0.1,0.1c2.3,1.4,4.2,3.1,5.9,5.2l0.2,0.3c0.6,0.8,2.9,3.4,5,5.7c0.4,0.5,8.1,10.6,9.2,12.7c0.8,1.6,6.4,8.2,8.5,10.6l0.2,0.2
				l0,0.3c0.2,1.4,2,13.3-2.1,16.6C303.9,233.4,302.6,233.7,301.2,233.7z M282.4,221.2c0.5,0,1.8,0.6,11.6,8
				c1.8,1.2,7.1,3.8,9.7,1.7c2.4-1.9,2.1-9.7,1.4-14.4c-1.3-1.6-7.5-8.8-8.5-10.8c-0.9-1.6-6.8-9.5-9-12.4c-3.6-4-4.8-5.4-5.2-6.1
				l0,0c-1.5-1.9-3.2-3.4-5.3-4.7c-2.3-1.1-11.1-6.2-11.5-6.4c-1.1-0.6-2.5-0.9-2.7-0.7c-0.1,0.1-0.3,0.9,0.6,3
				c0.4,0.8,0.8,1.6,1.4,2.4l1.1,1.6l-2-0.1l0,0c0,0-1.3,0-1.7,0.7c-0.4,0.6-0.2,1.6,0.3,2.9c0.7,0.9,1.5,1.6,2.5,2.1
				c1.6,0.8,9,3.7,10.1,3.9c2,0.2,4.2,3.3,3.8,6.2l-0.1,0.8l-0.8,0.1c-0.9,0.1-8.7,0.6-11.7-0.8c-1.9-0.8-2.5-1.1-2.7-1.1l-0.1,0
				c-0.6-0.1-1.7,0.1-2,0.5c-0.2,0.4,0,1.2,0.5,2.2c1.2,2.1,3.3,3.5,5.7,3.7c1.3,0.1,2.5,0.5,3.7,1.2c1.5,0.9,3,2,4.3,3.2
				c1.2,0.9,3.3,2.4,3.8,2.7c0.4,0.2,0.6,0.6,0.7,1c0.2,1-0.8,2.3-1.4,2.9l-0.2,0.2l-0.2,0.1c-0.5,0.2-12.1,4.3-16,4.7
				c-0.5,0.4-1.3,1.3-1.3,1.9c0,0.6,0.7,1,1.3,1.4c3.1,1.6,11.6-0.7,14.6-1.7l0.2-0.1h0.2c2.1,0,4.5,0,4.8-0.1
				C282.3,221.2,282.4,221.2,282.4,221.2z M278.7,212.6C278.7,212.6,278.7,212.6,278.7,212.6C278.7,212.6,278.7,212.6,278.7,212.6z"
				/>
		</g>
		<g>
			<path class="st6" d="M262.4,176.9"/>
		</g>
		<g>
			<path class="st3" d="M271.7,184.3c0,0-6.5-1.5-7.9-2.5"/>
			<path class="st0" d="M271.5,185.3c-1.1-0.3-6.8-1.6-8.3-2.7l1.2-1.6c0.8,0.6,4.9,1.8,7.5,2.4L271.5,185.3z"/>
		</g>
		<g>
			<path class="st2" d="M216.4,211.6l3.5-2.9c0,0,3,19.2,9.5,27.1l-5.8,5c-2.1-3.5-4-7.1-5.6-10.8c-1.9-3.7-3.4-18.1-3.4-18.1
				L216.4,211.6z"/>
			<path class="st0" d="M223.4,242.3l-0.6-1c-2.1-3.5-4-7.2-5.7-10.9c-1.9-3.8-3.4-17.8-3.5-18.4l-0.1-0.9l2.5-0.4l4.6-3.9l0.3,1.7
				c0,0.2,3,19,9.3,26.6l0.6,0.8L223.4,242.3z M215.7,212.8c0.5,4.5,1.9,14.1,3.2,16.8c1.5,3.3,3.2,6.6,5,9.7l4.1-3.6
				c-5.1-7-7.9-20.3-8.8-25.1l-2.4,2L215.7,212.8z"/>
		</g>
		<g>
			<path class="st2" d="M309.7,210.8l-3.7-2.3c0,0-3,19.2-9.5,27.1l5.8,5c0,0,3.8-6.3,6.1-10.7c3.4-6,3-18.2,3-18.2L309.7,210.8z"/>
			<path class="st0" d="M302.5,242.1l-7.4-6.4l0.6-0.8c6.3-7.6,9.3-26.4,9.3-26.6l0.2-1.5l5,3.1l2.1,1.2l0,0.6
				c0,0.5,0.4,12.5-3.1,18.7c-2.3,4.3-6.1,10.6-6.1,10.7L302.5,242.1z M297.9,235.4l4.1,3.6c1.2-2,3.7-6.4,5.5-9.6
				c2.8-5,2.9-14.7,2.9-17.1l-1.2-0.7l-2.5-1.5C305.9,214.6,303.1,228.3,297.9,235.4z"/>
		</g>
	</g>
</g>
</svg>
