<?xml version="1.0" encoding="utf-8"?>
<!-- Generator: Adobe Illustrator 21.1.0, SVG Export Plug-In . SVG Version: 6.00 Build 0)  -->
<svg version="1.1" id="Слой_1" xmlns="http://www.w3.org/2000/svg" xmlns:xlink="http://www.w3.org/1999/xlink" x="0px" y="0px"
	 viewBox="0 0 538.8 421.9" style="enable-background:new 0 0 538.8 421.9;" xml:space="preserve">
<style type="text/css">
	.st0{fill:#6095F4;stroke:#396CF3;stroke-width:3;stroke-miterlimit:10;}
	.st1{fill:#D9E7FF;stroke:#396CF3;stroke-width:3;stroke-miterlimit:10;}
	.st2{fill:#B4CEFC;stroke:#396CF3;stroke-width:2;stroke-miterlimit:10;}
	.st3{fill:#FFFFFF;stroke:#396CF3;stroke-width:3;stroke-miterlimit:10;}
	.st4{fill:none;stroke:#396CF3;stroke-width:2;stroke-miterlimit:10;}
	.st5{fill:#FFFFFF;stroke:#396CF3;stroke-width:2;stroke-miterlimit:10;}
	.st6{fill:#91F2B8;stroke:#396CF3;stroke-width:2;stroke-miterlimit:10;}
	.st7{fill:none;stroke:#396CF3;stroke-width:3;stroke-linecap:round;stroke-miterlimit:10;}
	.st8{fill:none;stroke:#396CF3;stroke-width:2;stroke-linecap:round;stroke-miterlimit:10;}
	.st9{fill:#91F2B8;stroke:#396CF3;stroke-miterlimit:10;}
	.st10{fill:none;stroke:#000000;stroke-width:1.08;stroke-miterlimit:10;}
	.st11{fill:#396CF3;stroke:#396CF3;stroke-width:2;stroke-linecap:round;stroke-miterlimit:10;}
</style>
<title>man table_3</title>
<g id="Слой_2">
	<g id="Слой_2-2">
		<path class="st0" d="M194.3,181.8c0,0,68-60,142,0l-68,31L194.3,181.8z"/>
		<path class="st1" d="M265.8,169.8L265.8,169.8c-7.1,0-12.9-5.8-12.9-12.9V56.7c0-7.1,5.8-12.9,12.9-12.9h0
			c7.1,0,12.9,5.8,12.9,12.9v100.2C278.7,164,273,169.8,265.8,169.8z"/>
		<path class="st2" d="M323.3,77.8c0,0,9-26-2-41c0,0-25-4-23,12s16,27,16,31S323.3,77.8,323.3,77.8z"/>
		<path class="st3" d="M328.3,90.7L328.3,90.7c0,7.7-6.2,13.9-13.9,13.9h-98.2c-7.7,0-13.9-6.2-13.9-13.9v0
			c0-7.7,6.2-13.9,13.9-13.9h98.2C322.1,76.8,328.3,83.1,328.3,90.7z"/>
		<path class="st4" d="M475.1,188.3c4.2-1.5,8.7-2.3,13.2-2.3c22.4,0,40.5,18.7,40.5,41.8c0,7.6-2,15.1-5.8,21.6"/>
		<path class="st5" d="M487.9,289.5L487.9,289.5c2.2,0,4,1.8,4,4v11.6c0,2.2-1.8,4-4,4l0,0c-2.2,0-4-1.8-4-4v-11.6
			C483.9,291.3,485.7,289.5,487.9,289.5z"/>
		<path class="st3" d="M265.8,29.8H285c15.1,0,27.4,12.3,27.4,27.4v46.1c0,25.7-20.8,46.5-46.5,46.5l0,0
			c-25.7,0-46.5-20.8-46.5-46.5v-27C219.4,50.7,240.2,29.8,265.8,29.8L265.8,29.8z"/>
		<path class="st5" d="M462.2,205.8L462.2,205.8c-3.2-3.2-3.2-8.4,0-11.7l7-7c3.2-3.2,8.4-3.2,11.7,0l0,0c3.2,3.2,3.2,8.4,0,11.7
			l-7,7C470.6,209,465.4,209,462.2,205.8z"/>
		<path class="st2" d="M219.3,76.8c0,0-11,0-11,2s-15-30,9-44c0,0,49-80,111,6c0,0-22,33-76,12C252.3,52.8,220.3,35.8,219.3,76.8z"
			/>
		<path class="st6" d="M465,313.7L465,313.7c0-4.6,3.7-8.3,8.2-8.3h29.3c4.6,0,8.2,3.7,8.2,8.2v0c0,4.6-3.7,8.2-8.2,8.2h-29.3
			C468.7,322,465,318.3,465,313.7z"/>
		<path class="st6" d="M14.5,263.8L14.5,263.8c0-3.9,3.2-7.1,7.1-7.1h82.2l0,0v14.2l0,0H21.6C17.7,270.9,14.5,267.7,14.5,263.8
			C14.5,263.8,14.5,263.8,14.5,263.8z"/>
		<circle class="st5" cx="85.2" cy="236.7" r="8.7"/>
		<path class="st5" d="M79,255.7H62.1c-3.9,0-7.1-3.2-7.1-7.1l0,0v-28.8l0,0h31.1l0,0v28.7C86.1,252.5,82.9,255.7,79,255.7L79,255.7
			L79,255.7z"/>
		<line class="st7" x1="49" y1="355" x2="45.6" y2="392.8"/>
		<line class="st7" x1="68.1" y1="354.8" x2="64.2" y2="387.7"/>
		<line class="st7" x1="45.2" y1="397.8" x2="44.7" y2="403.1"/>
		<line class="st7" x1="44.1" y1="408" x2="43" y2="415.6"/>
		<line class="st7" x1="63.7" y1="392.6" x2="63.1" y2="399.9"/>
		<line class="st7" x1="476.4" y1="358.5" x2="479.8" y2="396.4"/>
		<line class="st7" x1="457.3" y1="358.4" x2="461.1" y2="391.2"/>
		<line class="st7" x1="481" y1="402.4" x2="481.5" y2="407.8"/>
		<line class="st7" x1="482.1" y1="412.8" x2="483.1" y2="420.4"/>
		<line class="st7" x1="462" y1="396" x2="462.6" y2="403.3"/>
		<path class="st5" d="M11.4,278.4L11.4,278.4c0-3.9,3.2-7.1,7.1-7.1l0,0h82.2l0,0v14.2l0,0H18.5C14.5,285.5,11.4,282.3,11.4,278.4
			L11.4,278.4z"/>
		<polygon class="st5" points="70.3,359 43.2,359 43.2,327.5 79.3,327.5 		"/>
		<polygon class="st5" points="480.6,359 453.4,359 445.8,327.5 480.9,327.5 		"/>
		<path class="st5" d="M96.8,306.5L96.8,306.5c0,3.9-3.2,7.1-7.1,7.1H7.5l0,0v-14.2l0,0h82.2C93.6,299.4,96.8,302.5,96.8,306.5
			C96.8,306.5,96.8,306.5,96.8,306.5z"/>
		<path class="st6" d="M27.5,292.4L27.5,292.4c0-3.9,3.1-7,7-7h82.3l0,0v14l0,0H34.5C30.6,299.4,27.5,296.3,27.5,292.4z"/>
		<path class="st0" d="M1.5,326.8v-13.2l0,0H522l0,0v13.2c0,4.6-3.7,8.2-8.2,8.2H9.8C5.2,335,1.5,331.4,1.5,326.8
			C1.5,326.8,1.5,326.8,1.5,326.8z"/>
		<path class="st8" d="M232.3,79.8c0,0,7-9,20-6"/>
		<path class="st8" d="M300.3,79.8c0,0-7-9-20-6"/>
		<path class="st1" d="M176.3,227.8c0,0-44,38,0,54V227.8z"/>
		<path class="st1" d="M357.3,227.8c0,0,44,38,0,54V227.8z"/>
		<path class="st5" d="M172.8,182.3h187.5c2.5,0,4.5,2,4.5,4.5v106.3c0,2.5-2,4.5-4.5,4.5H172.8c-2.5,0-4.5-2-4.5-4.5V186.8
			C168.3,184.4,170.3,182.3,172.8,182.3z"/>
		<path class="st5" d="M171.6,297.6h187.5c2.5,0,4.5,2,4.5,4.5v7c0,2.5-2,4.5-4.5,4.5H171.6c-2.5,0-4.5-2-4.5-4.5v-7
			C167.1,299.6,169.1,297.6,171.6,297.6z"/>
		<circle class="st9" cx="179.9" cy="305.6" r="2"/>
		<circle class="st9" cx="189.8" cy="305.6" r="2"/>
		<path class="st4" d="M505.5,270.7H525c7,0,12.8-5.7,12.8-12.8l0,0c0-7-5.7-12.8-12.8-12.8h-4"/>
		<path class="st4" d="M503.4,270.7h-19.5c-7,0-12.8,5.4-12.8,11.9l0,0c0,6.5,5.8,11.9,12.8,11.9h4"/>
		<circle class="st9" cx="199.8" cy="305.6" r="2"/>
		<path class="st6" d="M450,207.5l8.2,9.6c-2.6,2.3-6.6,1.9-8.9-0.7C447.1,213.7,447.4,209.7,450,207.5z"/>
		<path class="st5" d="M468,229.4l-29.7-34.8c9.6-8.2,24-7.1,32.3,2.5C478.7,206.7,477.6,221.1,468,229.4z"/>
		<path class="st5" d="M481.7,197.7L481.7,197.7c1.7-1.4,4.2-1.3,5.6,0.4l36.1,41.9c1.4,1.7,1.3,4.2-0.4,5.6l0,0
			c-1.7,1.4-4.2,1.3-5.6-0.4l-36.1-41.9C479.8,201.7,480,199.1,481.7,197.7z"/>
		<path class="st5" d="M524.3,243.9L524.3,243.9c1.8,1.3,2.2,3.8,0.9,5.6l-32.7,44.6c-1.3,1.8-3.8,2.2-5.6,0.9l0,0
			c-1.8-1.3-2.2-3.8-0.9-5.6l32.7-44.6C520,243,522.5,242.6,524.3,243.9z"/>
		<circle class="st5" cx="522" cy="246.2" r="4.5"/>
		<path class="st10" d="M469.7,257.9"/>
		<circle class="st5" cx="487.9" cy="293.9" r="4.5"/>
		<circle class="st5" cx="482.2" cy="198.1" r="4.5"/>
		<path class="st7" d="M278.6,124.8c0,6.1-5.7,10.1-12.8,10.1s-12.8-4-12.8-10.1"/>
		<path class="st8" d="M272.4,103.9c0,3.1-3,5.7-6.6,5.7s-6.6-2.5-6.6-5.7"/>
		<circle class="st11" cx="244.4" cy="89.5" r="2.7"/>
		<circle class="st11" cx="287.4" cy="89.5" r="2.7"/>
		<line class="st8" x1="61.2" y1="197.8" x2="61.2" y2="205.3"/>
		<line class="st8" x1="61.2" y1="210.3" x2="61.2" y2="216.1"/>
		<line class="st8" x1="70" y1="191.9" x2="70" y2="197.4"/>
		<line class="st8" x1="70" y1="204.9" x2="70" y2="213.3"/>
		<line class="st8" x1="77.7" y1="200.5" x2="77.7" y2="205.6"/>
		<line class="st8" x1="77.7" y1="210" x2="77.7" y2="216.1"/>
	</g>
</g>
</svg>
