<?xml version="1.0" encoding="utf-8"?>
<!-- Generator: Adobe Illustrator 21.1.0, SVG Export Plug-In . SVG Version: 6.00 Build 0)  -->
<svg version="1.1" id="Слой_1" xmlns="http://www.w3.org/2000/svg" xmlns:xlink="http://www.w3.org/1999/xlink" x="0px" y="0px"
	 viewBox="0 0 538.8 469.8" style="enable-background:new 0 0 538.8 469.8;" xml:space="preserve">
<style type="text/css">
	.st0{fill:#6095F4;stroke:#396CF3;stroke-width:3;stroke-miterlimit:10;}
	.st1{fill:#D9E7FF;stroke:#396CF3;stroke-width:3;stroke-miterlimit:10;}
	.st2{fill:#B4CEFC;stroke:#396CF3;stroke-width:2;stroke-miterlimit:10;}
	.st3{fill:#FFFFFF;stroke:#396CF3;stroke-width:3;stroke-miterlimit:10;}
	.st4{fill:none;stroke:#396CF3;stroke-width:2;stroke-miterlimit:10;}
	.st5{fill:#FFFFFF;stroke:#396CF3;stroke-width:2;stroke-miterlimit:10;}
	.st6{fill:#D6E5FC;stroke:#396CF3;stroke-width:2;stroke-miterlimit:10;}
	.st7{fill:none;stroke:#396CF3;stroke-width:3;stroke-linecap:round;stroke-miterlimit:10;}
	.st8{fill:none;stroke:#396CF3;stroke-width:2;stroke-linecap:round;stroke-miterlimit:10;}
	.st9{fill:#91F2B8;stroke:#396CF3;stroke-miterlimit:10;}
	.st10{fill:none;stroke:#000000;stroke-width:1.08;stroke-miterlimit:10;}
	.st11{fill:#D9E7FF;stroke:#396CF3;stroke-width:2;stroke-miterlimit:10;}
	.st12{fill:#396CF3;}
	.st13{fill:#91F2B8;stroke:#4CD383;stroke-miterlimit:10;}
	.st14{fill:none;stroke:#4CD383;stroke-linecap:round;stroke-miterlimit:10;}
	.st15{fill:#D6E5FC;}
	.st16{fill:#91F2B8;stroke:#396CF3;stroke-width:2;stroke-miterlimit:10;}
	.st17{fill:none;stroke:#91F2B8;stroke-width:2;stroke-miterlimit:10;}
	.st18{fill:none;stroke:#91F2B8;stroke-width:2;stroke-linecap:round;stroke-miterlimit:10;}
</style>
<title>man dream</title>
<g id="Слой_2">
	<g id="Слой_2-2">
		<path class="st0" d="M194.3,229.7c0,0,68-60,142,0l-68,31L194.3,229.7z"/>
		<path class="st1" d="M265.8,217.7L265.8,217.7c-7.1,0-12.9-5.8-12.9-12.9V104.6c0-7.1,5.8-12.9,12.9-12.9h0
			c7.1,0,12.9,5.8,12.9,12.9v100.2C278.7,211.9,273,217.7,265.8,217.7z"/>
		<path class="st2" d="M323.3,125.7c0,0,9-26-2-41c0,0-25-4-23,12s16,27,16,31C314.3,131.7,323.3,125.7,323.3,125.7z"/>
		<path class="st3" d="M328.3,138.6L328.3,138.6c0,7.7-6.2,13.9-13.9,13.9h-98.2c-7.7,0-13.9-6.2-13.9-13.9v0
			c0-7.7,6.2-13.9,13.9-13.9h98.2C322.1,124.7,328.3,131,328.3,138.6z"/>
		<path class="st4" d="M475.1,236.1c4.2-1.5,8.7-2.3,13.2-2.3c22.4,0,40.5,18.7,40.5,41.8c0,7.6-2,15.1-5.8,21.6"/>
		<path class="st5" d="M487.9,337.4L487.9,337.4c2.2,0,4,1.8,4,4V353c0,2.2-1.8,4-4,4l0,0c-2.2,0-4-1.8-4-4v-11.6
			C483.9,339.2,485.7,337.4,487.9,337.4z"/>
		<path class="st3" d="M265.8,77.7H285c15.1,0,27.4,12.3,27.4,27.4v46.1c0,25.7-20.8,46.5-46.5,46.5l0,0
			c-25.7,0-46.5-20.8-46.5-46.5v-27C219.4,98.6,240.2,77.8,265.8,77.7z"/>
		<path class="st2" d="M219.3,124.7c0,0-11,0-11,2c0,2-15-30,9-44c0,0,49-80,111,6c0,0-22,33-76,12
			C252.3,100.7,220.3,83.7,219.3,124.7z"/>
		<path class="st6" d="M465,361.6L465,361.6c0-4.6,3.7-8.3,8.2-8.3h29.3c4.6,0,8.2,3.7,8.2,8.2v0c0,4.6-3.7,8.2-8.2,8.2h-29.3
			C468.7,369.9,465,366.2,465,361.6z"/>
		<circle class="st5" cx="116.8" cy="342.6" r="8.7"/>
		<path class="st6" d="M110.5,361.6H93.6c-3.9,0-7.1-3.2-7.1-7.1v-28.8l0,0h31.1l0,0v28.8C117.6,358.5,114.5,361.6,110.5,361.6z"/>
		<line class="st7" x1="49" y1="402.9" x2="45.6" y2="440.7"/>
		<line class="st7" x1="68.1" y1="402.7" x2="64.2" y2="435.6"/>
		<line class="st7" x1="45.2" y1="445.7" x2="44.7" y2="451"/>
		<line class="st7" x1="44.1" y1="455.9" x2="43" y2="463.5"/>
		<line class="st7" x1="63.7" y1="440.5" x2="63.1" y2="447.8"/>
		<line class="st7" x1="476.4" y1="406.4" x2="479.8" y2="444.2"/>
		<line class="st7" x1="457.3" y1="406.2" x2="461.1" y2="439.1"/>
		<line class="st7" x1="481" y1="450.3" x2="481.5" y2="455.7"/>
		<line class="st7" x1="482.1" y1="460.6" x2="483.1" y2="468.3"/>
		<line class="st7" x1="462" y1="443.9" x2="462.6" y2="451.2"/>
		<polygon class="st5" points="70.3,406.9 43.2,406.9 43.2,375.4 79.3,375.4 		"/>
		<polygon class="st5" points="480.6,406.9 453.4,406.9 445.8,375.4 480.9,375.4 		"/>
		<path class="st0" d="M1.5,374.7v-13.2l0,0H522l0,0v13.2c0,4.6-3.6,8.3-8.2,8.3c0,0,0,0-0.1,0H9.8C5.2,383,1.5,379.3,1.5,374.7
			C1.5,374.7,1.5,374.7,1.5,374.7z"/>
		<path class="st8" d="M232.3,127.7c0,0,7-9,20-6"/>
		<path class="st8" d="M300.3,127.7c0,0-7-9-20-6"/>
		<path class="st1" d="M176.3,275.7c0,0-44,38,0,54V275.7z"/>
		<path class="st1" d="M357.3,275.7c0,0,44,38,0,54V275.7z"/>
		<path class="st5" d="M360.3,345.5H172.8c-2.5,0-4.5-2-4.5-4.5l-10-106.3c0-2.5,2-4.5,4.5-4.5h207.5c2.5,0,4.5,2,4.5,4.5l-10,106.3
			C364.8,343.5,362.8,345.5,360.3,345.5z"/>
		<path class="st5" d="M171.6,345.5h187.5c2.5,0,4.5,2,4.5,4.5v7c0,2.5-2,4.5-4.5,4.5H171.6c-2.5,0-4.5-2-4.5-4.5v-7
			C167.1,347.5,169.1,345.5,171.6,345.5z"/>
		<circle class="st9" cx="179.9" cy="353.5" r="2"/>
		<circle class="st9" cx="189.8" cy="353.5" r="2"/>
		<path class="st4" d="M505.5,318.6H525c7,0,12.8-5.7,12.8-12.8l0,0c0-7.1-5.7-12.8-12.8-12.8h-4"/>
		<path class="st4" d="M503.4,318.6h-19.5c-7,0-12.8,5.4-12.8,11.9l0,0c0,6.5,5.8,11.9,12.8,11.9h4"/>
		<circle class="st9" cx="199.8" cy="353.5" r="2"/>
		<path class="st5" d="M481.7,245.6L481.7,245.6c1.7-1.4,4.2-1.3,5.6,0.4l36.1,41.9c1.4,1.7,1.3,4.2-0.4,5.6l0,0
			c-1.7,1.4-4.2,1.3-5.6-0.4l-36.1-41.9C479.9,249.6,480,247,481.7,245.6z"/>
		<path class="st5" d="M526.3,292.3L526.3,292.3c1.8,1.3,2.2,3.8,0.9,5.6l-32.6,44.8c-1.3,1.8-3.8,2.2-5.6,0.9l0,0
			c-1.8-1.3-2.2-3.8-0.9-5.6l32.6-44.8C522,291.4,524.5,291,526.3,292.3z"/>
		<circle class="st5" cx="522" cy="294.1" r="4.5"/>
		<path class="st10" d="M469.7,305.8"/>
		<circle class="st5" cx="487.9" cy="341.8" r="4.5"/>
		<circle class="st5" cx="482.2" cy="246" r="4.5"/>
		<path class="st7" d="M278.6,172.7c0,6.1-5.7,10.1-12.8,10.1s-12.8-4-12.8-10.1"/>
		<path class="st8" d="M272.4,151.8c0,3.1-3,5.7-6.6,5.7s-6.6-2.5-6.6-5.7"/>
		<line class="st8" x1="92.7" y1="303.8" x2="92.7" y2="311.2"/>
		<line class="st8" x1="92.7" y1="316.3" x2="92.7" y2="322.1"/>
		<line class="st8" x1="101.5" y1="297.9" x2="101.5" y2="303.3"/>
		<line class="st8" x1="101.5" y1="310.8" x2="101.5" y2="319.2"/>
		<line class="st8" x1="109.3" y1="306.4" x2="109.3" y2="311.5"/>
		<line class="st8" x1="109.3" y1="316" x2="109.3" y2="322.1"/>
		<path class="st8" d="M249.9,135.9c0,3-2.5,5.5-5.5,5.5s-5.5-2.5-5.5-5.5"/>
		<path class="st8" d="M292.9,135.9c0,3-2.5,5.5-5.5,5.5s-5.5-2.5-5.5-5.5"/>
		<path class="st11" d="M376.5,74.7l-36.7-7c-2.6-0.5-4.4-3.1-3.9-5.7c0,0,0,0,0,0l10.2-53.2c0.5-2.6,3.1-4.3,5.7-3.8l30.8,5.9
			c1.2,0.2,2.3,1,3,2l4.8,6.8c0.8,1.1,1.1,2.4,0.8,3.7l-9.1,47.5C381.6,73.5,379.1,75.2,376.5,74.7z"/>
		<path class="st11" d="M382.8,20.5l0.7-8.4c0-0.3,0.3-0.6,0.6-0.5c0.2,0,0.3,0.1,0.4,0.2l6.3,9.7c0.2,0.3,0.1,0.6-0.2,0.8
			c-0.1,0.1-0.3,0.1-0.4,0.1l-7-1.4C383,21.1,382.7,20.8,382.8,20.5z"/>
		<path class="st12" d="M368.8,34.8c1.2,0.3,1.1,5.7-0.3,12.1l1.8,0.4c1.5-6.9,0.9-12.9-1.3-13.3c-1.3-0.3-2.8,1.2-4.1,3.6
			c-0.2-2.8-0.9-4.7-2.2-5c-2.2-0.5-5.2,4.7-6.8,11.6l1.8,0.4c1.4-6.4,3.5-11.4,4.8-11.1s1.2,5.3-0.1,11.2l1.8,0.4
			C365.5,39,367.6,34.5,368.8,34.8"/>
		<polygon class="st2" points="57.8,359.8 23.8,359.8 20.6,327.2 61.3,327.2 		"/>
		<path class="st13" d="M44.8,288.1c0,0-5.3,16-14.5,2.5s-1.5-22.5-1.5-22.5s7.5-8.3,14.5,2.5S44.8,288.1,44.8,288.1z"/>
		<path class="st13" d="M55.1,296.1c0,0-7.8,5.2-7.3-3.9s7.1-10.5,7.1-10.5s6.2-1.1,5.5,6.1S55.1,296.1,55.1,296.1z"/>
		<ellipse class="st13" cx="40.5" cy="309.8" rx="15" ry="16.5"/>
		<path class="st6" d="M20.4,321.5h41.1c1.6,0,2.9,1.3,2.9,2.9v7.8c0,1.6-1.3,2.9-2.9,2.9H20.4c-1.6,0-2.9-1.3-2.9-2.9v-7.8
			C17.5,322.8,18.8,321.5,20.4,321.5z"/>
		<line class="st14" x1="29" y1="274.4" x2="23.8" y2="268.7"/>
		<line class="st14" x1="35" y1="269.3" x2="36.3" y2="261.8"/>
		<line class="st14" x1="40.5" y1="271.5" x2="45.2" y2="267.4"/>
		<line class="st14" x1="38.3" y1="280.5" x2="40.5" y2="276.8"/>
		<line class="st14" x1="34" y1="280.5" x2="31.3" y2="275.8"/>
		<line class="st14" x1="42.8" y1="282.9" x2="48.4" y2="278.7"/>
		<line class="st14" x1="33.7" y1="286" x2="26.4" y2="282.1"/>
		<line class="st14" x1="37.3" y1="289.2" x2="36.8" y2="284.5"/>
		<line class="st14" x1="30" y1="304.5" x2="25.8" y2="298"/>
		<line class="st14" x1="28.7" y1="309.8" x2="23.4" y2="306.3"/>
		<line class="st14" x1="28.8" y1="314.9" x2="22.6" y2="312.9"/>
		<line class="st14" x1="35.7" y1="305.8" x2="34.9" y2="301.6"/>
		<line class="st14" x1="40" y1="301.2" x2="41" y2="296.7"/>
		<line class="st14" x1="46.8" y1="303" x2="47.8" y2="300.3"/>
		<line class="st14" x1="47.8" y1="309.2" x2="50" y2="306.5"/>
		<line class="st14" x1="40.9" y1="308" x2="41" y2="305.3"/>
		<line class="st14" x1="33.6" y1="311.7" x2="32.7" y2="309.3"/>
		<line class="st14" x1="38.7" y1="315.5" x2="37.1" y2="311.9"/>
		<line class="st14" x1="44.1" y1="316.1" x2="44.8" y2="312.7"/>
		<line class="st14" x1="48.9" y1="316.3" x2="50.8" y2="312.9"/>
		<line class="st14" x1="36.3" y1="318.3" x2="33.6" y2="315.3"/>
		<line class="st14" x1="54.7" y1="284" x2="54.2" y2="280"/>
		<line class="st14" x1="58.2" y1="285.8" x2="60.5" y2="281.7"/>
		<line class="st14" x1="58.5" y1="288.4" x2="63" y2="287.3"/>
		<line class="st14" x1="52.3" y1="288.4" x2="52.3" y2="286.9"/>
		<line class="st14" x1="54.4" y1="291.1" x2="55.5" y2="288.4"/>
		<line class="st14" x1="51.8" y1="293.3" x2="51.5" y2="290.9"/>
		<circle class="st5" cx="477.8" cy="241.6" r="23.1"/>
		<circle class="st15" cx="477.8" cy="241" r="17.6"/>
		<circle class="st16" cx="477.8" cy="241.6" r="6.7"/>
		<path class="st11" d="M155.4,141.6l-34.2,15.1c-2.5,1.1-5.3,0-6.4-2.5L93,104.7c-1.1-2.5,0-5.3,2.5-6.4l28.6-12.6
			c1.1-0.5,2.4-0.5,3.6-0.1l7.9,2.8c1.2,0.5,2.3,1.4,2.8,2.6l19.5,44.2C159,137.6,157.9,140.5,155.4,141.6z"/>
		<path class="st11" d="M129.8,93.4l-4.2-7.3c-0.2-0.3-0.1-0.6,0.2-0.8c0.2-0.1,0.3-0.1,0.5,0l10.5,3.9c0.3,0.1,0.5,0.5,0.3,0.8
			c-0.1,0.1-0.1,0.2-0.3,0.3l-6.3,3.4C130.3,93.8,129.9,93.7,129.8,93.4z"/>
		<g id="_Группа_">
			<path id="_Контур_" class="st12" d="M118.2,118.6c-0.2,2.7,2.1,5.5,4.4,6.8c1.1,0.6,2.2,1.2,3.1,0.7h0.1
				c0.4-0.2,0.7-0.5,0.9-0.8c0.3-0.4,0.7-0.7,1.1-0.9c0.4-0.2,0.9-0.3,1.3-0.3c0.4,0,0.9-0.1,1.3-0.3c1-0.5,1.2-1.8,1.4-2.9
				c0.1-0.8,0.1-1.7,0-2.5l0,0c0-0.1-0.1-0.1-0.1-0.1l0,0c-1.3,0.1-2.5-0.7-3.1-1.9c-0.5-1.1-0.4-2.3,0.2-3.3l0,0c0-0.1,0-0.1,0-0.2
				c-1-0.6-2.3-0.6-3.3-0.2l-0.2,0.1c-0.6,0.3-1.1,0.7-1.5,1.2c-0.2,0.2-0.4,0.4-0.7,0.6c-0.3,0.1-0.6,0.2-0.9,0.2
				c-0.6,0-1.1,0.1-1.6,0.3l0,0C119.1,116,118.3,117.2,118.2,118.6z"/>
			<path id="_Контур_2" class="st12" d="M123.6,109.5c-0.8,0.5-1.4,1.2-1.6,2.1c-0.3,0.9-0.1,1.8,0.3,2.6c0,0,0.1,0,0.2,0
				l0.2-0.1c0.8-0.4,1.3-1.1,1.5-2c0.2-0.9,0.1-1.9-0.4-2.7C123.8,109.4,123.7,109.4,123.6,109.5z"/>
		</g>
		<path class="st11" d="M418.2,197l-35.7-10.9c-2.6-0.8-4-3.5-3.2-6.1l15.8-51.8c0.8-2.6,3.5-4,6.1-3.2l30,9.2
			c1.2,0.4,2.2,1.2,2.8,2.3l4.1,7.3c0.6,1.2,0.8,2.5,0.4,3.8l-14.1,46.3C423.5,196.4,420.8,197.8,418.2,197z"/>
		<path class="st11" d="M430.3,143.8l1.6-8.2c0.1-0.3,0.4-0.5,0.7-0.5c0.2,0,0.3,0.1,0.4,0.3l5.2,10.4c0.2,0.3,0.1,0.6-0.2,0.8
			c-0.1,0.1-0.3,0.1-0.4,0.1l-6.8-2.1C430.4,144.4,430.2,144.1,430.3,143.8z"/>
		<path class="st12" d="M398.1,155.6c0,0.1,0,0.2-0.1,0.3c-0.1,0.2-0.3,0.3-0.5,0.3c-0.1,0-0.2-0.1-0.3-0.1l-0.2-0.1l-0.1-0.1
			c0,0,0,0,0-0.1c0-0.1,0-0.1,0.1-0.2l0.4-0.7l0.4,0.2c0.1,0.1,0.3,0.1,0.4,0.3C398,155.4,398.1,155.5,398.1,155.6z M398.6,154.1
			c-0.1-0.1-0.2-0.2-0.4-0.3l-0.3-0.2l-0.4,0.8l0.3,0.2c0.1,0.1,0.3,0.1,0.4,0.2c0.1,0,0.2,0,0.3,0c0.1,0,0.1-0.1,0.2-0.2
			c0-0.1,0-0.2,0-0.2C398.6,154.3,398.6,154.2,398.6,154.1z M401.4,156.1c-0.7,2.1-2.9,3.3-5,2.6c-2.1-0.7-3.3-2.9-2.6-5
			c0.7-2.1,2.9-3.3,5-2.6c0,0,0,0,0,0C400.9,151.8,402.1,154,401.4,156.1L401.4,156.1z M399.5,154.4c0-0.2-0.1-0.3-0.2-0.4
			c-0.1-0.1-0.1-0.1-0.2-0.2l0.3-0.5l-0.5-0.3l-0.3,0.5l-0.3-0.2l0.3-0.5l-0.5-0.3l-0.3,0.5l-0.8-0.4l-0.2,0.4l0.1,0.1
			c0.1,0,0.1,0.1,0.1,0.1c0,0,0,0.1,0,0.1c0,0.1,0,0.1-0.1,0.2l-0.9,1.7c0,0.1-0.1,0.1-0.1,0.2c0,0-0.1,0-0.1,0
			c-0.1,0-0.1,0-0.2-0.1l-0.1-0.1l-0.2,0.4l0.8,0.4l-0.3,0.5l0.5,0.3l0.3-0.5l0.3,0.2l0,0l-0.3,0.5l0.5,0.3l0.3-0.6l0.3,0.1
			c0.2,0,0.4,0,0.6-0.1c0.2-0.1,0.3-0.2,0.4-0.4c0.1-0.1,0.1-0.3,0.1-0.4c0-0.1-0.1-0.3-0.1-0.4c-0.1-0.1-0.2-0.2-0.3-0.3
			c0.1,0,0.3,0,0.4,0c0.1,0,0.2-0.1,0.3-0.1c0.1-0.1,0.2-0.2,0.2-0.3C399.5,154.7,399.5,154.5,399.5,154.4L399.5,154.4z
			 M405.9,158.4c-0.4,1.6-2,2.5-3.6,2.1c0,0-0.1,0-0.1,0c-1-0.3-1.4-0.9-1.1-1.6c0.1-0.3,0.2-0.5,0.3-0.7l2.2-4l1.3,0.4l-1.2,2.3
			l0,0c0.4-0.3,1-0.4,1.5-0.2c0.7,0.2,1.1,1,0.9,1.7C406,158.3,405.9,158.4,405.9,158.4L405.9,158.4z M404.5,158.3
			c0.1-0.4,0-0.8-0.3-0.9s-1,0.2-1.4,0.9l-0.2,0.3c-0.1,0.1-0.1,0.3-0.2,0.4c-0.1,0.2,0,0.5,0.3,0.6c0,0,0,0,0.1,0
			C403.5,159.8,404.3,159,404.5,158.3L404.5,158.3z M405.4,161.4l1.2,0.4l2.1-4l-1.2-0.4L405.4,161.4z M408.9,155.8
			c-0.4-0.1-0.8,0.1-0.9,0.5c0,0,0,0,0,0c-0.1,0.3,0,0.7,0.4,0.8c0,0,0,0,0.1,0c0.4,0.1,0.8,0,0.9-0.4c0,0,0,0,0-0.1
			c0.1-0.3,0-0.7-0.3-0.8C409,155.8,409,155.8,408.9,155.8L408.9,155.8z M411.7,157.4l-1.4-0.1l-0.5,0.8l-0.5-0.2l-0.5,0.9l0.5,0.2
			l-0.9,1.6c-0.1,0.2-0.2,0.5-0.3,0.8c-0.2,0.5,0.1,1,0.8,1.2c0.2,0.1,0.5,0.1,0.8,0.1l0.5-0.9c-0.1,0-0.2-0.1-0.4-0.1
			c-0.2,0-0.3-0.2-0.3-0.4c0,0,0-0.1,0-0.1c0.1-0.2,0.1-0.3,0.2-0.5l0.7-1.3l0.9,0.3l0.5-0.9l-0.9-0.3L411.7,157.4z M411.3,161.4
			c-0.3,0.9,0.1,1.9,1,2.2c0.1,0,0.2,0.1,0.2,0.1c0.4,0.1,0.8,0.2,1.3,0.1l0.3-1c-0.3,0-0.6,0-0.9-0.1c-0.4-0.1-0.7-0.6-0.6-1
			c0,0,0-0.1,0-0.1c0.2-0.8,1-1.3,1.9-1.1c0,0,0,0,0,0c0.2,0.1,0.4,0.2,0.5,0.3l0.6-0.9c-0.2-0.2-0.5-0.3-0.8-0.4
			c-1.4-0.5-3,0.3-3.5,1.7C411.3,161.3,411.3,161.3,411.3,161.4L411.3,161.4z M419.5,162.9c-0.3,1.4-1.7,2.3-3.2,1.9
			c-0.1,0-0.1,0-0.2-0.1c-0.9-0.2-1.5-1.1-1.3-2.1c0-0.1,0-0.1,0.1-0.2c0.4-1.4,1.8-2.3,3.2-1.9c0,0,0.1,0,0.1,0
			c0.9,0.2,1.5,1.2,1.3,2.1C419.6,162.8,419.5,162.8,419.5,162.9L419.5,162.9z M418.2,162.6c0.1-0.4,0.1-0.9-0.4-1
			c-0.7-0.2-1.4,0.7-1.6,1.4c-0.1,0.5,0,0.9,0.4,1C417.3,164.1,418,163.2,418.2,162.6L418.2,162.6z M422.6,160.1
			c-0.4-0.1-0.8,0.1-0.9,0.5c0,0,0,0,0,0c-0.1,0.3,0,0.7,0.4,0.8c0,0,0,0,0.1,0c0.4,0.1,0.8,0,0.9-0.4c0,0,0,0,0-0.1
			c0.1-0.3,0-0.7-0.3-0.8C422.7,160.1,422.7,160.1,422.6,160.1L422.6,160.1z M419.1,165.6l1.2,0.4l2.1-4l-1.2-0.4L419.1,165.6z
			 M426,163c-0.6-0.2-1.2-0.1-1.7,0.3l0,0l0.3-0.7l-1.1-0.3c-0.2,0.4-0.4,0.8-0.6,1.3l-1.4,2.7l1.2,0.4l0.9-1.8
			c0.5-0.9,1.1-1.2,1.5-1.1s0.4,0.3,0.3,0.6c0,0.2-0.1,0.3-0.2,0.5l-1.2,2.2l1.2,0.4l1.2-2.3c0.1-0.2,0.2-0.5,0.3-0.7
			c0.3-0.5,0-1.2-0.5-1.4C426.2,163,426.1,163,426,163z"/>
		<circle class="st17" cx="165.5" cy="107.8" r="3.9"/>
		<circle class="st17" cx="332.3" cy="4.9" r="3.9"/>
		<circle class="st17" cx="214.8" cy="43.3" r="3.9"/>
		<circle class="st17" cx="399.5" cy="7.7" r="3.9"/>
		<circle class="st17" cx="433.1" cy="102" r="3.9"/>
		<circle class="st17" cx="108.3" cy="73.5" r="3.1"/>
		<line class="st18" x1="148.2" y1="74.7" x2="144.8" y2="83.4"/>
		<line class="st18" x1="142.8" y1="77.6" x2="150.3" y2="80.5"/>
		<line class="st18" x1="306.5" y1="30.8" x2="303.1" y2="39.5"/>
		<line class="st18" x1="301.1" y1="33.7" x2="308.6" y2="36.6"/>
		<line class="st18" x1="365.3" y1="106" x2="361.9" y2="114.7"/>
		<line class="st18" x1="359.8" y1="108.9" x2="367.3" y2="111.8"/>
	</g>
</g>
</svg>
