<svg xmlns="http://www.w3.org/2000/svg" viewBox="0 0 57.92 57.92"><defs><style>.cls-1,.cls-4{fill:none;}.cls-2{fill:#396cf3;}.cls-3{fill:#fff;stroke:#396cf3;}.cls-3,.cls-4{stroke-miterlimit:10;}.cls-4{stroke:#4cd383;stroke-linecap:round;stroke-width:0.5px;}</style></defs><title>blade</title><g id="Слой_2" data-name="Слой 2"><g id="Слой_1-2" data-name="Слой 1"><g id="Слой_2-2" data-name="Слой 2"><g id="Слой_8" data-name="Слой 8"><circle class="cls-1" cx="28.96" cy="28.96" r="28.96"/><path class="cls-2" d="M54.13,43.31a46.36,46.36,0,0,1-6.8-2.57A68.47,68.47,0,0,1,41,37.44q-3-1.8-6.1-3.86A45.75,45.75,0,0,1,29.28,29a45.74,45.74,0,0,1,6.8,2.57q3.27,1.51,6.37,3.31t6,3.87A46.37,46.37,0,0,1,54.13,43.31Z"/><path class="cls-2" d="M29.38.1a46.36,46.36,0,0,1,1.11,7.18c.2,2.39.28,4.78.26,7.18s-.14,4.78-.38,7.17a45.74,45.74,0,0,1-1.24,7.16A45.74,45.74,0,0,1,28,21.61q-.3-3.59-.26-7.18a71.76,71.76,0,0,1,.39-7.17A46.33,46.33,0,0,1,29.38.1Z"/><path class="cls-2" d="M4.27,43.31a46.35,46.35,0,0,1,5.62-4.6q2.94-2.08,6-3.87t6.37-3.31A45.74,45.74,0,0,1,29.12,29a45.75,45.75,0,0,1-5.62,4.61q-2.94,2.08-6,3.86t-6.37,3.31A46.36,46.36,0,0,1,4.27,43.31Z"/><circle class="cls-3" cx="29.12" cy="28.79" r="3.85" transform="translate(-10.84 37.75) rotate(-57.32)"/><path class="cls-4" d="M31.79,23.79a4.57,4.57,0,0,1,2.93,5"/></g></g></g></g></svg>