<svg xmlns="http://www.w3.org/2000/svg" viewBox="0 0 361.7 125.85"><defs><style>.cls-1,.cls-2{fill:#b4cefc;}.cls-2,.cls-5{stroke:#396cf3;}.cls-2,.cls-4,.cls-5,.cls-6,.cls-7{stroke-miterlimit:10;}.cls-2,.cls-5,.cls-7{stroke-width:2px;}.cls-3{fill:#396cf3;}.cls-4{fill:#fff;}.cls-4,.cls-7{stroke:#6095f4;}.cls-5{fill:#e3eeff;}.cls-6{fill:#91f2b8;stroke:#4cd383;}.cls-7{fill:none;}</style></defs><title>step3_img</title><g id="Слой_2" data-name="Слой 2"><g id="Слой_8" data-name="Слой 8"><rect class="cls-1" x="112.36" width="17.83" height="5.42"/><rect class="cls-1" x="56.86" y="40.25" width="17.83" height="5.42"/><polygon class="cls-2" points="102.11 124.33 32.37 124.33 32.37 64.71 48.87 43.83 86.61 43.83 102.11 64.21 102.11 124.33"/><polygon class="cls-2" points="64.49 124.33 32.37 124.33 32.37 64.71 48.87 43.83 64.49 43.83 64.49 124.33"/><polygon class="cls-3" points="102.11 65.33 64.43 65.33 64.49 43.83 86.61 43.83 102.11 64.21 102.11 65.33"/><rect class="cls-4" x="70.11" y="73.33" width="3.67" height="7.75"/><rect class="cls-4" x="76.82" y="73.33" width="3.67" height="7.75"/><rect class="cls-4" x="83.49" y="73.33" width="3.67" height="7.75"/><rect class="cls-4" x="90.19" y="73.33" width="3.67" height="7.75"/><rect class="cls-4" x="70.11" y="86.46" width="3.67" height="7.75"/><rect class="cls-4" x="76.82" y="86.46" width="3.67" height="7.75"/><rect class="cls-4" x="83.49" y="86.46" width="3.67" height="7.75"/><rect class="cls-4" x="90.19" y="86.46" width="3.67" height="7.75"/><rect class="cls-4" x="70.11" y="99.96" width="3.67" height="7.75"/><rect class="cls-4" x="76.82" y="99.96" width="3.67" height="7.75"/><rect class="cls-4" x="83.49" y="99.96" width="3.67" height="7.75"/><rect class="cls-4" x="90.19" y="99.96" width="3.67" height="7.75"/><polygon class="cls-5" points="157.62 124.35 87.86 124.35 87.86 24.73 104.36 3.85 142.11 3.85 157.62 24.23 157.62 124.35"/><polygon class="cls-2" points="119.99 124.35 87.86 124.35 87.86 24.73 104.36 3.85 119.99 3.85 119.99 124.35"/><polygon class="cls-3" points="158.1 25.08 119.93 25.08 119.99 2.88 142.11 2.88 158.1 24.05 158.1 25.08"/><polygon class="cls-2" points="266.44 54.5 223.96 93.43 338.92 93.43 266.44 54.5"/><path class="cls-3" d="M266,54.93l-42,38.5h42l.51-38.29A.28.28,0,0,0,266,54.93Z"/><polygon class="cls-3" points="317.2 75.17 303.37 75.17 304.37 54.5 316.2 54.5 317.2 75.17"/><polygon class="cls-3" points="332.47 75.17 318.63 75.17 319.63 54.5 331.47 54.5 332.47 75.17"/><polygon class="cls-3" points="348.11 75.17 334.28 75.17 335.28 54.5 347.11 54.5 348.11 75.17"/><rect class="cls-4" x="125.61" y="33.08" width="4.26" height="7.75"/><rect class="cls-4" x="133.4" y="33.08" width="4.26" height="7.75"/><rect class="cls-4" x="141.16" y="33.08" width="4.26" height="7.75"/><rect class="cls-4" x="148.94" y="33.08" width="4.26" height="7.75"/><rect class="cls-4" x="125.61" y="46.21" width="4.26" height="7.75"/><rect class="cls-4" x="133.4" y="46.21" width="4.26" height="7.75"/><rect class="cls-4" x="141.16" y="46.21" width="4.26" height="7.75"/><rect class="cls-4" x="148.94" y="46.21" width="4.26" height="7.75"/><rect class="cls-4" x="125.61" y="59.71" width="4.26" height="7.75"/><rect class="cls-4" x="133.4" y="59.71" width="4.26" height="7.75"/><rect class="cls-4" x="141.16" y="59.71" width="4.26" height="7.75"/><rect class="cls-4" x="148.94" y="59.71" width="4.26" height="7.75"/><rect class="cls-4" x="125.61" y="72.63" width="4.26" height="7.75"/><rect class="cls-4" x="133.4" y="72.63" width="4.26" height="7.75"/><rect class="cls-4" x="141.16" y="72.63" width="4.26" height="7.75"/><rect class="cls-4" x="148.94" y="72.63" width="4.26" height="7.75"/><rect class="cls-4" x="125.61" y="85.54" width="4.26" height="7.75"/><rect class="cls-4" x="133.4" y="85.54" width="4.26" height="7.75"/><rect class="cls-4" x="141.16" y="85.54" width="4.26" height="7.75"/><rect class="cls-4" x="148.94" y="85.54" width="4.26" height="7.75"/><rect class="cls-4" x="125.61" y="98.46" width="4.26" height="7.75"/><rect class="cls-4" x="133.4" y="98.46" width="4.26" height="7.75"/><rect class="cls-4" x="141.16" y="98.46" width="4.26" height="7.75"/><rect class="cls-4" x="148.94" y="98.46" width="4.26" height="7.75"/><polygon class="cls-5" points="222.03 124.33 360.7 124.33 360.7 72.17 269.87 72.17 236.49 55.5 222.03 72.17 222.03 124.33"/><path class="cls-2" d="M235.86,124.35H222V66.5l14-10.69a.25.25,0,0,1,.41.2Z"/><path class="cls-3" d="M235.86,70.88,222,78.31V66.81L235.5,56.28a.58.58,0,0,1,.94.48Z"/><rect class="cls-4" x="244.53" y="82.5" width="2.5" height="21.67"/><rect class="cls-4" x="254.07" y="82.5" width="2.5" height="21.67"/><rect class="cls-4" x="264.07" y="82.5" width="2.5" height="21.67"/><rect class="cls-4" x="273.7" y="82.5" width="2.5" height="21.67"/><rect class="cls-4" x="298.03" y="82.5" width="14.5" height="5.67"/><rect class="cls-4" x="316.45" y="82.5" width="14.5" height="5.67"/><rect class="cls-4" x="333.94" y="82.5" width="14.5" height="5.67"/><rect class="cls-4" x="298.03" y="90.5" width="14.5" height="5.67"/><rect class="cls-4" x="316.45" y="90.5" width="14.5" height="5.67"/><rect class="cls-4" x="333.94" y="90.5" width="14.5" height="5.67"/><rect class="cls-4" x="298.03" y="99.33" width="14.5" height="5.67"/><rect class="cls-4" x="316.45" y="99.33" width="14.5" height="5.67"/><rect class="cls-4" x="333.94" y="99.33" width="14.5" height="5.67"/><rect class="cls-3" x="222.03" y="116.17" width="138.67" height="8.17"/><path class="cls-6" d="M192.2,100.58c0-5.32,4.32-29.64,9.64-29.64s9.64,24.32,9.64,29.64a9.64,9.64,0,0,1-19.28,0Z"/><line class="cls-7" x1="201.84" y1="110.22" x2="201.84" y2="124.33"/><path class="cls-6" d="M.5,95C.5,88.48,5.82,58.5,12.39,58.5S24.27,88.48,24.27,95A11.89,11.89,0,0,1,.5,95Z"/><line class="cls-7" x1="12.39" y1="106.93" x2="12.39" y2="124.33"/><path class="cls-6" d="M14.5,107.26c0-3.83,3.1-21.3,6.93-21.3s6.93,17.48,6.93,21.3a6.93,6.93,0,0,1-13.86,0Z"/><line class="cls-7" x1="21.43" y1="114.19" x2="21.43" y2="124.33"/><path class="cls-6" d="M215.8,120.5c0-2.68,2.17-14.92,4.85-14.92s4.85,12.24,4.85,14.92a4.85,4.85,0,0,1-9.71,0Z"/></g></g></svg>